M48
INCH,LZ
;FILE_FORMAT=2:4
;TYPE=PLATED
;Layer: PTH_Through_Via
;EasyEDA v6.5.22, 2023-04-13 23:23:34
;8da0a1a92f474effb9e69289645bcd93,716f0268f4a04d1f8e2d1e8369cd39e0,10
;Gerber Generator version 0.2
;Holesize 1 = 0.0120 inch
T01C0.0120
;Holesize 2 = 0.0200 inch
T02C0.0200
%
G05
G90
T01
X022600Y007350
X029550Y013750
X016950Y007600
X015300Y007800
X015900Y007500
X016550Y007800
X019200Y009300
X013750Y001400
X014500Y005900
X015300Y003750
X015800Y013850
X017600Y013850
X016550Y012400
X019800Y011000
X015950Y008650
X016900Y008850
X018050Y006950
X018150Y007400
X017800Y010500
X017800Y010100
X013450Y010050
X013450Y009650
X013400Y010650
X018635Y009835
X018350Y008250
X018950Y011200
X016750Y011650
X014550Y011200
X017550Y011600
X014750Y012400
X019850Y012600
X022850Y013050
X020150Y005800
X012500Y011650
X023100Y007700
X027044Y008100
X028600Y006070
T02
X030000Y004400
X030000Y004950
M30
