G04 Layer: TopSilkscreenLayer*
G04 EasyEDA v6.5.22, 2023-04-13 23:23:34*
G04 8da0a1a92f474effb9e69289645bcd93,716f0268f4a04d1f8e2d1e8369cd39e0,10*
G04 Gerber Generator version 0.2*
G04 Scale: 100 percent, Rotated: No, Reflected: No *
G04 Dimensions in inches *
G04 leading zeros omitted , absolute positions ,3 integer and 6 decimal *
%FSLAX36Y36*%
%MOIN*%

%ADD10C,0.0060*%
%ADD11C,0.0100*%
%ADD12C,0.0051*%
%ADD13C,0.0039*%
%ADD14C,0.0059*%
%ADD15C,0.0154*%

%LPD*%
D10*
X1132299Y1446300D02*
G01*
X1130500Y1449899D01*
X1126800Y1453499D01*
X1123199Y1455399D01*
X1115900Y1455399D01*
X1112299Y1453499D01*
X1108599Y1449899D01*
X1106800Y1446300D01*
X1105000Y1440799D01*
X1105000Y1431700D01*
X1106800Y1426300D01*
X1108599Y1422600D01*
X1112299Y1419000D01*
X1115900Y1417199D01*
X1123199Y1417199D01*
X1126800Y1419000D01*
X1130500Y1422600D01*
X1132299Y1426300D01*
X1132299Y1431700D01*
X1123199Y1431700D02*
G01*
X1132299Y1431700D01*
X1144300Y1455399D02*
G01*
X1144300Y1417199D01*
X1144300Y1455399D02*
G01*
X1169700Y1417199D01*
X1169700Y1455399D02*
G01*
X1169700Y1417199D01*
X1181700Y1455399D02*
G01*
X1181700Y1417199D01*
X1181700Y1455399D02*
G01*
X1194499Y1455399D01*
X1199899Y1453499D01*
X1203500Y1449899D01*
X1205399Y1446300D01*
X1207200Y1440799D01*
X1207200Y1431700D01*
X1205399Y1426300D01*
X1203500Y1422600D01*
X1199899Y1419000D01*
X1194499Y1417199D01*
X1181700Y1417199D01*
X1360000Y1455399D02*
G01*
X1360000Y1417199D01*
X1360000Y1455399D02*
G01*
X1383599Y1455399D01*
X1360000Y1437199D02*
G01*
X1374499Y1437199D01*
X1360000Y1417199D02*
G01*
X1383599Y1417199D01*
X1395600Y1455399D02*
G01*
X1421099Y1417199D01*
X1421099Y1455399D02*
G01*
X1395600Y1417199D01*
X1445799Y1455399D02*
G01*
X1445799Y1417199D01*
X1433100Y1455399D02*
G01*
X1458500Y1455399D01*
X1820000Y1470399D02*
G01*
X1820000Y1443099D01*
X1821800Y1437600D01*
X1825500Y1434000D01*
X1830900Y1432199D01*
X1834499Y1432199D01*
X1840000Y1434000D01*
X1843599Y1437600D01*
X1845500Y1443099D01*
X1845500Y1470399D01*
X1882899Y1464899D02*
G01*
X1879300Y1468499D01*
X1873800Y1470399D01*
X1866499Y1470399D01*
X1861099Y1468499D01*
X1857500Y1464899D01*
X1857500Y1461300D01*
X1859300Y1457600D01*
X1861099Y1455799D01*
X1864700Y1454000D01*
X1875600Y1450399D01*
X1879300Y1448499D01*
X1881099Y1446700D01*
X1882899Y1443099D01*
X1882899Y1437600D01*
X1879300Y1434000D01*
X1873800Y1432199D01*
X1866499Y1432199D01*
X1861099Y1434000D01*
X1857500Y1437600D01*
X1894899Y1470399D02*
G01*
X1894899Y1432199D01*
X1894899Y1470399D02*
G01*
X1911300Y1470399D01*
X1916700Y1468499D01*
X1918500Y1466700D01*
X1920399Y1463099D01*
X1920399Y1459499D01*
X1918500Y1455799D01*
X1916700Y1454000D01*
X1911300Y1452199D01*
X1894899Y1452199D02*
G01*
X1911300Y1452199D01*
X1916700Y1450399D01*
X1918500Y1448499D01*
X1920399Y1444899D01*
X1920399Y1439499D01*
X1918500Y1435799D01*
X1916700Y1434000D01*
X1911300Y1432199D01*
X1894899Y1432199D01*
X1853000Y1405399D02*
G01*
X1867500Y1367199D01*
X1882100Y1405399D02*
G01*
X1867500Y1367199D01*
X1919499Y1399899D02*
G01*
X1915900Y1403499D01*
X1910399Y1405399D01*
X1903100Y1405399D01*
X1897700Y1403499D01*
X1894099Y1399899D01*
X1894099Y1396300D01*
X1895900Y1392600D01*
X1897700Y1390799D01*
X1901300Y1389000D01*
X1912200Y1385399D01*
X1915900Y1383499D01*
X1917700Y1381700D01*
X1919499Y1378099D01*
X1919499Y1372600D01*
X1915900Y1369000D01*
X1910399Y1367199D01*
X1903100Y1367199D01*
X1897700Y1369000D01*
X1894099Y1372600D01*
X1931499Y1398099D02*
G01*
X1935100Y1399899D01*
X1940600Y1405399D01*
X1940600Y1367199D01*
X2278599Y1485399D02*
G01*
X2298599Y1485399D01*
X2287700Y1470799D01*
X2293199Y1470799D01*
X2296800Y1469000D01*
X2298599Y1467199D01*
X2300500Y1461700D01*
X2300500Y1458099D01*
X2298599Y1452600D01*
X2295000Y1449000D01*
X2289499Y1447199D01*
X2284099Y1447199D01*
X2278599Y1449000D01*
X2276800Y1450799D01*
X2275000Y1454499D01*
X2316099Y1485399D02*
G01*
X2336099Y1485399D01*
X2325200Y1470799D01*
X2330600Y1470799D01*
X2334300Y1469000D01*
X2336099Y1467199D01*
X2337899Y1461700D01*
X2337899Y1458099D01*
X2336099Y1452600D01*
X2332500Y1449000D01*
X2326999Y1447199D01*
X2321499Y1447199D01*
X2316099Y1449000D01*
X2314300Y1450799D01*
X2312500Y1454499D01*
X1467299Y1386300D02*
G01*
X1465500Y1389899D01*
X1461800Y1393499D01*
X1458199Y1395399D01*
X1450900Y1395399D01*
X1447299Y1393499D01*
X1443599Y1389899D01*
X1441800Y1386300D01*
X1440000Y1380799D01*
X1440000Y1371700D01*
X1441800Y1366300D01*
X1443599Y1362600D01*
X1447299Y1359000D01*
X1450900Y1357199D01*
X1458199Y1357199D01*
X1461800Y1359000D01*
X1465500Y1362600D01*
X1467299Y1366300D01*
X1490200Y1395399D02*
G01*
X1486499Y1393499D01*
X1482899Y1389899D01*
X1481099Y1386300D01*
X1479300Y1380799D01*
X1479300Y1371700D01*
X1481099Y1366300D01*
X1482899Y1362600D01*
X1486499Y1359000D01*
X1490200Y1357199D01*
X1497500Y1357199D01*
X1501099Y1359000D01*
X1504700Y1362600D01*
X1506499Y1366300D01*
X1508400Y1371700D01*
X1508400Y1380799D01*
X1506499Y1386300D01*
X1504700Y1389899D01*
X1501099Y1393499D01*
X1497500Y1395399D01*
X1490200Y1395399D01*
X1520399Y1395399D02*
G01*
X1520399Y1357199D01*
X1532399Y1395399D02*
G01*
X1532399Y1357199D01*
X1532399Y1395399D02*
G01*
X1557799Y1357199D01*
X1557799Y1395399D02*
G01*
X1557799Y1357199D01*
X1605000Y1375399D02*
G01*
X1605000Y1337199D01*
X1605000Y1375399D02*
G01*
X1621400Y1375399D01*
X1626800Y1373499D01*
X1628599Y1371700D01*
X1630500Y1368099D01*
X1630500Y1362600D01*
X1628599Y1359000D01*
X1626800Y1357199D01*
X1621400Y1355399D01*
X1605000Y1355399D01*
X1642500Y1375399D02*
G01*
X1651499Y1337199D01*
X1660600Y1375399D02*
G01*
X1651499Y1337199D01*
X1660600Y1375399D02*
G01*
X1669700Y1337199D01*
X1678800Y1375399D02*
G01*
X1669700Y1337199D01*
X1690799Y1375399D02*
G01*
X1690799Y1337199D01*
X1690799Y1375399D02*
G01*
X1707200Y1375399D01*
X1712600Y1373499D01*
X1714499Y1371700D01*
X1716300Y1368099D01*
X1716300Y1364499D01*
X1714499Y1360799D01*
X1712600Y1359000D01*
X1707200Y1357199D01*
X1690799Y1357199D01*
X1703500Y1357199D02*
G01*
X1716300Y1337199D01*
X1225000Y1310399D02*
G01*
X1225000Y1272199D01*
X1225000Y1310399D02*
G01*
X1241400Y1310399D01*
X1246800Y1308499D01*
X1248599Y1306700D01*
X1250500Y1303099D01*
X1250500Y1297600D01*
X1248599Y1294000D01*
X1246800Y1292199D01*
X1241400Y1290399D01*
X1225000Y1290399D01*
X1262500Y1310399D02*
G01*
X1271499Y1272199D01*
X1280600Y1310399D02*
G01*
X1271499Y1272199D01*
X1280600Y1310399D02*
G01*
X1289700Y1272199D01*
X1298800Y1310399D02*
G01*
X1289700Y1272199D01*
X1310799Y1310399D02*
G01*
X1310799Y1272199D01*
X1310799Y1310399D02*
G01*
X1327200Y1310399D01*
X1332600Y1308499D01*
X1334499Y1306700D01*
X1336300Y1303099D01*
X1336300Y1299499D01*
X1334499Y1295799D01*
X1332600Y1294000D01*
X1327200Y1292199D01*
X1310799Y1292199D01*
X1323500Y1292199D02*
G01*
X1336300Y1272199D01*
X1965000Y775399D02*
G01*
X1965000Y748099D01*
X1966800Y742600D01*
X1970500Y739000D01*
X1975900Y737199D01*
X1979499Y737199D01*
X1985000Y739000D01*
X1988599Y742600D01*
X1990500Y748099D01*
X1990500Y775399D01*
X2027899Y769899D02*
G01*
X2024300Y773499D01*
X2018800Y775399D01*
X2011499Y775399D01*
X2006099Y773499D01*
X2002500Y769899D01*
X2002500Y766300D01*
X2004300Y762600D01*
X2006099Y760799D01*
X2009700Y759000D01*
X2020600Y755399D01*
X2024300Y753499D01*
X2026099Y751700D01*
X2027899Y748099D01*
X2027899Y742600D01*
X2024300Y739000D01*
X2018800Y737199D01*
X2011499Y737199D01*
X2006099Y739000D01*
X2002500Y742600D01*
X2039899Y775399D02*
G01*
X2039899Y737199D01*
X2039899Y775399D02*
G01*
X2063500Y775399D01*
X2039899Y757199D02*
G01*
X2054499Y757199D01*
X2039899Y737199D02*
G01*
X2063500Y737199D01*
X2075500Y775399D02*
G01*
X2075500Y737199D01*
X2075500Y775399D02*
G01*
X2091899Y775399D01*
X2097399Y773499D01*
X2099200Y771700D01*
X2101000Y768099D01*
X2101000Y764499D01*
X2099200Y760799D01*
X2097399Y759000D01*
X2091899Y757199D01*
X2075500Y757199D01*
X2088299Y757199D02*
G01*
X2101000Y737199D01*
X1100000Y640399D02*
G01*
X1100000Y602199D01*
X1100000Y640399D02*
G01*
X1116400Y640399D01*
X1121800Y638499D01*
X1123599Y636700D01*
X1125500Y633099D01*
X1125500Y629499D01*
X1123599Y625799D01*
X1121800Y624000D01*
X1116400Y622199D01*
X1100000Y622199D02*
G01*
X1116400Y622199D01*
X1121800Y620399D01*
X1123599Y618499D01*
X1125500Y614899D01*
X1125500Y609499D01*
X1123599Y605799D01*
X1121800Y604000D01*
X1116400Y602199D01*
X1100000Y602199D01*
X1150200Y640399D02*
G01*
X1150200Y602199D01*
X1137500Y640399D02*
G01*
X1162899Y640399D01*
X1207600Y647600D02*
G01*
X1174899Y589499D01*
X1219600Y640399D02*
G01*
X1219600Y613099D01*
X1221499Y607600D01*
X1225100Y604000D01*
X1230500Y602199D01*
X1234200Y602199D01*
X1239600Y604000D01*
X1243299Y607600D01*
X1245100Y613099D01*
X1245100Y640399D01*
X1282500Y634899D02*
G01*
X1278900Y638499D01*
X1273500Y640399D01*
X1266199Y640399D01*
X1260699Y638499D01*
X1257100Y634899D01*
X1257100Y631300D01*
X1258900Y627600D01*
X1260699Y625799D01*
X1264399Y624000D01*
X1275299Y620399D01*
X1278900Y618499D01*
X1280699Y616700D01*
X1282500Y613099D01*
X1282500Y607600D01*
X1278900Y604000D01*
X1273500Y602199D01*
X1266199Y602199D01*
X1260699Y604000D01*
X1257100Y607600D01*
X1294499Y640399D02*
G01*
X1294499Y602199D01*
X1294499Y640399D02*
G01*
X1310900Y640399D01*
X1316400Y638499D01*
X1318199Y636700D01*
X1320000Y633099D01*
X1320000Y629499D01*
X1318199Y625799D01*
X1316400Y624000D01*
X1310900Y622199D01*
X1294499Y622199D01*
X1307299Y622199D02*
G01*
X1320000Y602199D01*
X2570000Y830399D02*
G01*
X2570000Y792199D01*
X2592899Y830399D02*
G01*
X2589300Y828499D01*
X2585600Y824899D01*
X2583800Y821300D01*
X2581999Y815799D01*
X2581999Y806700D01*
X2583800Y801300D01*
X2585600Y797600D01*
X2589300Y794000D01*
X2592899Y792199D01*
X2600200Y792199D01*
X2603800Y794000D01*
X2607500Y797600D01*
X2609300Y801300D01*
X2611099Y806700D01*
X2611099Y815799D01*
X2609300Y821300D01*
X2607500Y824899D01*
X2603800Y828499D01*
X2600200Y830399D01*
X2592899Y830399D01*
X2623100Y823099D02*
G01*
X2626700Y824899D01*
X2632200Y830399D01*
X2632200Y792199D01*
X2653299Y830399D02*
G01*
X2647799Y828499D01*
X2646000Y824899D01*
X2646000Y821300D01*
X2647799Y817600D01*
X2651499Y815799D01*
X2658699Y814000D01*
X2664200Y812199D01*
X2667799Y808499D01*
X2669600Y804899D01*
X2669600Y799499D01*
X2667799Y795799D01*
X2666000Y794000D01*
X2660500Y792199D01*
X2653299Y792199D01*
X2647799Y794000D01*
X2646000Y795799D01*
X2644200Y799499D01*
X2644200Y804899D01*
X2646000Y808499D01*
X2649600Y812199D01*
X2655100Y814000D01*
X2662399Y815799D01*
X2666000Y817600D01*
X2667799Y821300D01*
X2667799Y824899D01*
X2666000Y828499D01*
X2660500Y830399D01*
X2653299Y830399D01*
X1110000Y345399D02*
G01*
X1110000Y307199D01*
X1110000Y345399D02*
G01*
X1126400Y345399D01*
X1131800Y343499D01*
X1133599Y341700D01*
X1135500Y338099D01*
X1135500Y334499D01*
X1133599Y330799D01*
X1131800Y329000D01*
X1126400Y327199D01*
X1110000Y327199D01*
X1122700Y327199D02*
G01*
X1135500Y307199D01*
X1147500Y345399D02*
G01*
X1147500Y307199D01*
X1147500Y345399D02*
G01*
X1171099Y345399D01*
X1147500Y327199D02*
G01*
X1161999Y327199D01*
X1147500Y307199D02*
G01*
X1171099Y307199D01*
X1208500Y339899D02*
G01*
X1204899Y343499D01*
X1199499Y345399D01*
X1192200Y345399D01*
X1186700Y343499D01*
X1183100Y339899D01*
X1183100Y336300D01*
X1184899Y332600D01*
X1186700Y330799D01*
X1190399Y329000D01*
X1201300Y325399D01*
X1204899Y323499D01*
X1206700Y321700D01*
X1208500Y318099D01*
X1208500Y312600D01*
X1204899Y309000D01*
X1199499Y307199D01*
X1192200Y307199D01*
X1186700Y309000D01*
X1183100Y312600D01*
X1220500Y345399D02*
G01*
X1220500Y307199D01*
X1220500Y345399D02*
G01*
X1244200Y345399D01*
X1220500Y327199D02*
G01*
X1235100Y327199D01*
X1220500Y307199D02*
G01*
X1244200Y307199D01*
X1268900Y345399D02*
G01*
X1268900Y307199D01*
X1256199Y345399D02*
G01*
X1281599Y345399D01*
X1435659Y139800D02*
G01*
X1435659Y74400D01*
X1402960Y107100D02*
G01*
X1468459Y107100D01*
X2087960Y112100D02*
G01*
X2153459Y112100D01*
X2243620Y144800D02*
G01*
X2243620Y79400D01*
X2210919Y112100D02*
G01*
X2276419Y112100D01*
X2892960Y107100D02*
G01*
X2958459Y107100D01*
X2765000Y580399D02*
G01*
X2779499Y542199D01*
X2794099Y580399D02*
G01*
X2779499Y542199D01*
X2831499Y574899D02*
G01*
X2827899Y578499D01*
X2822500Y580399D01*
X2815200Y580399D01*
X2809700Y578499D01*
X2806099Y574899D01*
X2806099Y571300D01*
X2807899Y567600D01*
X2809700Y565799D01*
X2813400Y564000D01*
X2824300Y560399D01*
X2827899Y558499D01*
X2829700Y556700D01*
X2831499Y553099D01*
X2831499Y547600D01*
X2827899Y544000D01*
X2822500Y542199D01*
X2815200Y542199D01*
X2809700Y544000D01*
X2806099Y547600D01*
X2845399Y571300D02*
G01*
X2845399Y573099D01*
X2847200Y576700D01*
X2848999Y578499D01*
X2852600Y580399D01*
X2859899Y580399D01*
X2863500Y578499D01*
X2865399Y576700D01*
X2867200Y573099D01*
X2867200Y569499D01*
X2865399Y565799D01*
X2861700Y560399D01*
X2843500Y542199D01*
X2868999Y542199D01*
X2880000Y515399D02*
G01*
X2880000Y477199D01*
X2902899Y515399D02*
G01*
X2899300Y513499D01*
X2895600Y509899D01*
X2893800Y506300D01*
X2891999Y500799D01*
X2891999Y491700D01*
X2893800Y486300D01*
X2895600Y482600D01*
X2899300Y479000D01*
X2902899Y477199D01*
X2910200Y477199D01*
X2913800Y479000D01*
X2917500Y482600D01*
X2919300Y486300D01*
X2921099Y491700D01*
X2921099Y500799D01*
X2919300Y506300D01*
X2917500Y509899D01*
X2913800Y513499D01*
X2910200Y515399D01*
X2902899Y515399D01*
X2933100Y508099D02*
G01*
X2936700Y509899D01*
X2942200Y515399D01*
X2942200Y477199D01*
X2977799Y502600D02*
G01*
X2976000Y497199D01*
X2972399Y493499D01*
X2966899Y491700D01*
X2965100Y491700D01*
X2959600Y493499D01*
X2956000Y497199D01*
X2954200Y502600D01*
X2954200Y504499D01*
X2956000Y509899D01*
X2959600Y513499D01*
X2965100Y515399D01*
X2966899Y515399D01*
X2972399Y513499D01*
X2976000Y509899D01*
X2977799Y502600D01*
X2977799Y493499D01*
X2976000Y484499D01*
X2972399Y479000D01*
X2966899Y477199D01*
X2963299Y477199D01*
X2957799Y479000D01*
X2956000Y482600D01*
X2902299Y451300D02*
G01*
X2900500Y454899D01*
X2896800Y458499D01*
X2893199Y460399D01*
X2885900Y460399D01*
X2882299Y458499D01*
X2878599Y454899D01*
X2876800Y451300D01*
X2875000Y445799D01*
X2875000Y436700D01*
X2876800Y431300D01*
X2878599Y427600D01*
X2882299Y424000D01*
X2885900Y422199D01*
X2893199Y422199D01*
X2896800Y424000D01*
X2900500Y427600D01*
X2902299Y431300D01*
X2902299Y436700D01*
X2893199Y436700D02*
G01*
X2902299Y436700D01*
X2914300Y460399D02*
G01*
X2914300Y422199D01*
X2914300Y460399D02*
G01*
X2939700Y422199D01*
X2939700Y460399D02*
G01*
X2939700Y422199D01*
X2951700Y460399D02*
G01*
X2951700Y422199D01*
X2951700Y460399D02*
G01*
X2964499Y460399D01*
X2969899Y458499D01*
X2973500Y454899D01*
X2975399Y451300D01*
X2977200Y445799D01*
X2977200Y436700D01*
X2975399Y431300D01*
X2973500Y427600D01*
X2969899Y424000D01*
X2964499Y422199D01*
X2951700Y422199D01*
X1292645Y994499D02*
G01*
X1259944Y994499D01*
X1253744Y996599D01*
X1251745Y998600D01*
X1249745Y1002699D01*
X1249745Y1006799D01*
X1251745Y1010900D01*
X1253744Y1013000D01*
X1259944Y1015000D01*
X1264044Y1015000D01*
X1284444Y980999D02*
G01*
X1286544Y976999D01*
X1292645Y970799D01*
X1249745Y970799D01*
G36*
X1289000Y944000D02*
G01*
X1300000Y935000D01*
X1311000Y944000D01*
G37*
G36*
X1300000Y935000D02*
G01*
X1289000Y926000D01*
X1311000Y926000D01*
G37*
G36*
X1289000Y1044000D02*
G01*
X1300000Y1035000D01*
X1311000Y1044000D01*
G37*
G36*
X1300000Y1035000D02*
G01*
X1289000Y1026000D01*
X1311000Y1026000D01*
G37*
G36*
X1300000Y1135000D02*
G01*
X1289000Y1126000D01*
X1311000Y1126000D01*
G37*
G36*
X1289000Y1144000D02*
G01*
X1300000Y1135000D01*
X1311000Y1144000D01*
G37*
G36*
X2040000Y1470000D02*
G01*
X2040000Y1390000D01*
X2045000Y1390000D01*
X2045000Y1470000D01*
G37*
G36*
X2035000Y1470000D02*
G01*
X2035000Y1465000D01*
X2040000Y1465000D01*
X2040000Y1470000D01*
G37*
D11*
X3009165Y650000D02*
G01*
X3041260Y650000D01*
X2948739Y650000D02*
G01*
X2980834Y650000D01*
X3022048Y550000D02*
G01*
X3041260Y550000D01*
X2948739Y550000D02*
G01*
X2967951Y550000D01*
X3041260Y650000D02*
G01*
X3041260Y550000D01*
X2948739Y650000D02*
G01*
X2948739Y550000D01*
D10*
X2924629Y581093D02*
G01*
X2924629Y552824D01*
X2885370Y552824D01*
X2885370Y581093D01*
X2924629Y598906D02*
G01*
X2924629Y627175D01*
X2885370Y627175D01*
X2885370Y598906D01*
D11*
X1199843Y887046D02*
G01*
X1199843Y867361D01*
X998267Y867361D01*
X998267Y1162638D01*
X1200039Y1162638D01*
X1200039Y1142953D01*
X998267Y1162638D02*
G01*
X998267Y1165592D01*
X982520Y1181338D01*
X969724Y1168542D01*
X969724Y1166828D01*
X998267Y1138285D01*
X998267Y1111141D02*
G01*
X969724Y1111141D01*
X969724Y912638D01*
X998267Y912638D01*
X998267Y867361D02*
G01*
X998267Y864407D01*
X982520Y848661D01*
X969724Y861457D01*
X972677Y861457D01*
X998267Y887046D01*
D10*
X1404629Y499987D02*
G01*
X1404629Y531093D01*
X1365370Y531093D02*
G01*
X1365370Y499987D01*
X1371369Y493987D02*
G01*
X1398630Y493987D01*
X1404629Y580012D02*
G01*
X1404629Y548906D01*
X1365370Y548906D02*
G01*
X1365370Y580012D01*
X1371369Y586012D02*
G01*
X1398630Y586012D01*
X1940011Y844630D02*
G01*
X1908905Y844630D01*
X1908905Y805369D02*
G01*
X1940011Y805369D01*
X1946012Y811370D02*
G01*
X1946012Y838629D01*
X1859988Y844630D02*
G01*
X1891094Y844630D01*
X1891094Y805369D02*
G01*
X1859988Y805369D01*
X1853987Y811370D02*
G01*
X1853987Y838629D01*
X1800370Y1045012D02*
G01*
X1800370Y1013906D01*
X1839629Y1013906D02*
G01*
X1839629Y1045012D01*
X1833630Y1051012D02*
G01*
X1806369Y1051012D01*
X1800370Y964987D02*
G01*
X1800370Y996093D01*
X1839629Y996093D02*
G01*
X1839629Y964987D01*
X1833630Y958987D02*
G01*
X1806369Y958987D01*
X1779988Y1105369D02*
G01*
X1811094Y1105369D01*
X1811094Y1144630D02*
G01*
X1779988Y1144630D01*
X1773987Y1138629D02*
G01*
X1773987Y1111370D01*
X1860011Y1105369D02*
G01*
X1828905Y1105369D01*
X1828905Y1144630D02*
G01*
X1860011Y1144630D01*
X1866012Y1138629D02*
G01*
X1866012Y1111370D01*
X2210011Y1224630D02*
G01*
X2178905Y1224630D01*
X2178905Y1185369D02*
G01*
X2210011Y1185369D01*
X2216012Y1191370D02*
G01*
X2216012Y1218629D01*
X2129988Y1224630D02*
G01*
X2161094Y1224630D01*
X2161094Y1185369D02*
G01*
X2129988Y1185369D01*
X2123987Y1191370D02*
G01*
X2123987Y1218629D01*
X1970011Y1239630D02*
G01*
X1938905Y1239630D01*
X1938905Y1200369D02*
G01*
X1970011Y1200369D01*
X1976012Y1206370D02*
G01*
X1976012Y1233629D01*
X1889988Y1239630D02*
G01*
X1921094Y1239630D01*
X1921094Y1200369D02*
G01*
X1889988Y1200369D01*
X1883987Y1206370D02*
G01*
X1883987Y1233629D01*
X2004988Y1185369D02*
G01*
X2036094Y1185369D01*
X2036094Y1224630D02*
G01*
X2004988Y1224630D01*
X1998987Y1218629D02*
G01*
X1998987Y1191370D01*
X2085011Y1185369D02*
G01*
X2053905Y1185369D01*
X2053905Y1224630D02*
G01*
X2085011Y1224630D01*
X2091012Y1218629D02*
G01*
X2091012Y1191370D01*
X1320011Y1374630D02*
G01*
X1288905Y1374630D01*
X1288905Y1335369D02*
G01*
X1320011Y1335369D01*
X1326012Y1341370D02*
G01*
X1326012Y1368629D01*
X1239988Y1374630D02*
G01*
X1271094Y1374630D01*
X1271094Y1335369D02*
G01*
X1239988Y1335369D01*
X1233987Y1341370D02*
G01*
X1233987Y1368629D01*
X2156306Y1325574D02*
G01*
X2100794Y1325574D01*
X2100794Y1254425D02*
G01*
X2156306Y1254425D01*
X2162307Y1260425D02*
G01*
X2162307Y1319574D01*
X2013693Y1325574D02*
G01*
X2069205Y1325574D01*
X2069205Y1254425D02*
G01*
X2013693Y1254425D01*
X2007692Y1260425D02*
G01*
X2007692Y1319574D01*
D12*
X1280315Y909409D02*
G01*
X1280315Y960590D01*
X1319684Y909409D02*
G01*
X1319684Y960590D01*
D13*
X1291000Y935000D02*
G01*
X1310000Y935000D01*
D12*
X1280315Y1009409D02*
G01*
X1280315Y1060590D01*
X1319684Y1009409D02*
G01*
X1319684Y1060590D01*
D13*
X1291000Y1035000D02*
G01*
X1310000Y1035000D01*
D12*
X1319684Y1160590D02*
G01*
X1319684Y1109409D01*
X1280315Y1160590D02*
G01*
X1280315Y1109409D01*
D13*
X1308999Y1135000D02*
G01*
X1290000Y1135000D01*
D11*
X1235000Y1459164D02*
G01*
X1235000Y1491260D01*
X1235000Y1398739D02*
G01*
X1235000Y1430835D01*
X1335000Y1472047D02*
G01*
X1335000Y1491260D01*
X1335000Y1398739D02*
G01*
X1335000Y1417952D01*
X1235000Y1491260D02*
G01*
X1335000Y1491260D01*
X1235000Y1398739D02*
G01*
X1335000Y1398739D01*
X1454682Y1337402D02*
G01*
X1512952Y1337795D01*
X1460196Y1262991D02*
G01*
X1512952Y1262991D01*
X1512952Y1337795D02*
G01*
X1512952Y1262991D01*
X1366098Y1262597D02*
G01*
X1366098Y1262600D01*
X1352321Y1276377D01*
X1366098Y1337402D02*
G01*
X1366098Y1337399D01*
X1352321Y1323622D01*
X1415312Y1337402D02*
G01*
X1366098Y1337402D01*
X1415312Y1262597D02*
G01*
X1366098Y1262597D01*
X1352321Y1323622D02*
G01*
X1352321Y1276377D01*
X1446810Y1319684D02*
G01*
X1446810Y1280315D01*
X1446810Y1299801D02*
G01*
X1427125Y1299801D01*
X2140317Y647597D02*
G01*
X2082047Y647204D01*
X2134803Y722008D02*
G01*
X2082047Y722008D01*
X2082047Y647204D02*
G01*
X2082047Y722008D01*
X2228901Y722402D02*
G01*
X2228901Y722399D01*
X2242678Y708622D01*
X2228901Y647597D02*
G01*
X2228901Y647600D01*
X2242678Y661377D01*
X2179687Y647597D02*
G01*
X2228901Y647597D01*
X2179687Y722402D02*
G01*
X2228901Y722402D01*
X2242678Y661377D02*
G01*
X2242678Y708622D01*
X2148189Y665315D02*
G01*
X2148189Y704684D01*
X2148189Y685198D02*
G01*
X2167874Y685198D01*
D10*
X1459520Y704490D02*
G01*
X1459520Y635498D01*
X1500528Y635498D01*
X1580479Y704490D02*
G01*
X1580479Y635498D01*
X1539471Y635498D01*
X1502070Y704490D02*
G01*
X1537929Y704490D01*
X1599520Y704490D02*
G01*
X1599520Y635498D01*
X1640528Y635498D01*
X1720479Y704490D02*
G01*
X1720479Y635498D01*
X1679471Y635498D01*
X1642070Y704490D02*
G01*
X1677929Y704490D01*
X2125370Y1438906D02*
G01*
X2125370Y1467175D01*
X2164629Y1467175D01*
X2164629Y1438906D01*
X2125370Y1421093D02*
G01*
X2125370Y1392824D01*
X2164629Y1392824D01*
X2164629Y1421093D01*
X1908905Y894630D02*
G01*
X1937174Y894630D01*
X1937174Y855369D01*
X1908905Y855369D01*
X1891094Y894630D02*
G01*
X1862825Y894630D01*
X1862825Y855369D01*
X1891094Y855369D01*
X1566094Y1285369D02*
G01*
X1537825Y1285369D01*
X1537825Y1324630D01*
X1566094Y1324630D01*
X1583905Y1285369D02*
G01*
X1612174Y1285369D01*
X1612174Y1324630D01*
X1583905Y1324630D01*
X2151094Y745369D02*
G01*
X2122825Y745369D01*
X2122825Y784630D01*
X2151094Y784630D01*
X2168905Y745369D02*
G01*
X2197174Y745369D01*
X2197174Y784630D01*
X2168905Y784630D01*
X1578905Y1219630D02*
G01*
X1607174Y1219630D01*
X1607174Y1180369D01*
X1578905Y1180369D01*
X1561094Y1219630D02*
G01*
X1532825Y1219630D01*
X1532825Y1180369D01*
X1561094Y1180369D01*
X1678905Y1219630D02*
G01*
X1707174Y1219630D01*
X1707174Y1180369D01*
X1678905Y1180369D01*
X1661094Y1219630D02*
G01*
X1632825Y1219630D01*
X1632825Y1180369D01*
X1661094Y1180369D01*
X1498905Y1219630D02*
G01*
X1527174Y1219630D01*
X1527174Y1180369D01*
X1498905Y1180369D01*
X1481094Y1219630D02*
G01*
X1452825Y1219630D01*
X1452825Y1180369D01*
X1481094Y1180369D01*
X1758905Y1219630D02*
G01*
X1787174Y1219630D01*
X1787174Y1180369D01*
X1758905Y1180369D01*
X1741094Y1219630D02*
G01*
X1712825Y1219630D01*
X1712825Y1180369D01*
X1741094Y1180369D01*
X1868905Y714630D02*
G01*
X1897174Y714630D01*
X1897174Y675369D01*
X1868905Y675369D01*
X1851094Y714630D02*
G01*
X1822825Y714630D01*
X1822825Y675369D01*
X1851094Y675369D01*
X1948905Y714630D02*
G01*
X1977174Y714630D01*
X1977174Y675369D01*
X1948905Y675369D01*
X1931094Y714630D02*
G01*
X1902825Y714630D01*
X1902825Y675369D01*
X1931094Y675369D01*
X1648905Y839630D02*
G01*
X1677174Y839630D01*
X1677174Y800369D01*
X1648905Y800369D01*
X1631094Y839630D02*
G01*
X1602825Y839630D01*
X1602825Y800369D01*
X1631094Y800369D01*
X1548905Y839630D02*
G01*
X1577174Y839630D01*
X1577174Y800369D01*
X1548905Y800369D01*
X1531094Y839630D02*
G01*
X1502825Y839630D01*
X1502825Y800369D01*
X1531094Y800369D01*
D11*
X1095001Y107159D02*
G01*
X1095001Y105000D01*
X1275001Y105000D01*
X1095001Y225270D02*
G01*
X1095001Y164729D01*
X1275001Y282840D02*
G01*
X1275001Y285000D01*
X1095001Y285000D01*
X1095001Y282840D01*
X1275001Y164729D02*
G01*
X1275001Y225270D01*
X1275001Y105000D02*
G01*
X1275001Y107159D01*
X2042277Y1480000D02*
G01*
X2007722Y1480000D01*
X2042277Y1380000D02*
G01*
X2007722Y1380000D01*
D10*
X1542933Y918575D02*
G01*
X1513575Y918575D01*
X1513575Y947932D01*
X1542933Y1121424D02*
G01*
X1513575Y1121424D01*
X1513575Y1092067D01*
X1687066Y918575D02*
G01*
X1716424Y918575D01*
X1716424Y947932D01*
X1687066Y1121424D02*
G01*
X1716424Y1121424D01*
X1716424Y1092067D01*
X2240952Y931008D02*
G01*
X1979047Y931008D01*
X1979047Y1038991D01*
X2240952Y1038991D01*
X2240952Y931008D01*
D11*
X3348681Y740666D02*
G01*
X3094119Y740666D01*
X3348681Y1449328D02*
G01*
X3094745Y1449328D01*
X3348681Y740666D02*
G01*
X3348681Y1449328D01*
X3101282Y740666D02*
G01*
X3101282Y1449328D01*
X3081247Y739996D02*
G01*
X3101282Y739996D01*
X2344745Y843180D02*
G01*
X2344745Y739996D01*
X2377611Y739996D01*
X2377611Y1449328D02*
G01*
X2344745Y1449328D01*
X2344745Y1346813D01*
X3101282Y1449328D02*
G01*
X3081247Y1449328D01*
D14*
X1901000Y405000D02*
G01*
X1961000Y405000D01*
X1629998Y547937D02*
G01*
X1629998Y585000D01*
X1629998Y585000D02*
G01*
X1505745Y585000D01*
X1505745Y585000D02*
G01*
X1505745Y392838D01*
X1505745Y217161D02*
G01*
X1505745Y25000D01*
X1505745Y25000D02*
G01*
X1629998Y25000D01*
X1629998Y25000D02*
G01*
X1629998Y72256D01*
X1636000Y365000D02*
G01*
X1636000Y445000D01*
X1596000Y405000D02*
G01*
X1676000Y405000D01*
X2696000Y405000D02*
G01*
X2756000Y405000D01*
X2424998Y547937D02*
G01*
X2424998Y585000D01*
X2424998Y585000D02*
G01*
X2300745Y585000D01*
X2300745Y585000D02*
G01*
X2300745Y392838D01*
X2300745Y217161D02*
G01*
X2300745Y25000D01*
X2300745Y25000D02*
G01*
X2424998Y25000D01*
X2424998Y25000D02*
G01*
X2424998Y72256D01*
X2431000Y365000D02*
G01*
X2431000Y445000D01*
X2391000Y405000D02*
G01*
X2471000Y405000D01*
D11*
X1717520Y1410000D02*
G01*
X1717520Y1485000D01*
X1797479Y1410630D02*
G01*
X1482520Y1410630D01*
X1482520Y1489369D01*
X1797479Y1489369D01*
X1797479Y1410630D01*
X1094996Y402204D02*
G01*
X1094996Y400045D01*
X1274996Y400045D01*
X1094996Y520315D02*
G01*
X1094996Y459774D01*
X1274996Y577885D02*
G01*
X1274996Y580045D01*
X1094996Y580045D01*
X1094996Y577885D01*
X1274996Y459774D02*
G01*
X1274996Y520315D01*
X1274996Y400045D02*
G01*
X1274996Y402204D01*
D10*
X1419629Y1099987D02*
G01*
X1419629Y1131093D01*
X1380370Y1131093D02*
G01*
X1380370Y1099987D01*
X1386369Y1093987D02*
G01*
X1413630Y1093987D01*
X1419629Y1180012D02*
G01*
X1419629Y1148906D01*
X1380370Y1148906D02*
G01*
X1380370Y1180012D01*
X1386369Y1186012D02*
G01*
X1413630Y1186012D01*
G75*
G01*
X1365370Y499988D02*
G03*
X1371370Y493988I6000J0D01*
G75*
G01*
X1398630Y493988D02*
G03*
X1404630Y499988I0J6000D01*
G75*
G01*
X1365370Y580012D02*
G02*
X1371370Y586012I6000J0D01*
G75*
G01*
X1398630Y586012D02*
G02*
X1404630Y580012I0J-6000D01*
G75*
G01*
X1940012Y805370D02*
G03*
X1946012Y811370I0J6000D01*
G75*
G01*
X1946012Y838630D02*
G03*
X1940012Y844630I-6000J0D01*
G75*
G01*
X1859988Y805370D02*
G02*
X1853988Y811370I0J6000D01*
G75*
G01*
X1853988Y838630D02*
G02*
X1859988Y844630I6000J0D01*
G75*
G01*
X1839630Y1045012D02*
G03*
X1833630Y1051012I-6000J0D01*
G75*
G01*
X1806370Y1051012D02*
G03*
X1800370Y1045012I0J-6000D01*
G75*
G01*
X1839630Y964988D02*
G02*
X1833630Y958988I-6000J0D01*
G75*
G01*
X1806370Y958988D02*
G02*
X1800370Y964988I0J6000D01*
G75*
G01*
X1779988Y1144630D02*
G03*
X1773988Y1138630I0J-6000D01*
G75*
G01*
X1773988Y1111370D02*
G03*
X1779988Y1105370I6000J0D01*
G75*
G01*
X1860012Y1144630D02*
G02*
X1866012Y1138630I0J-6000D01*
G75*
G01*
X1866012Y1111370D02*
G02*
X1860012Y1105370I-6000J0D01*
G75*
G01*
X2210012Y1185370D02*
G03*
X2216012Y1191370I0J6000D01*
G75*
G01*
X2216012Y1218630D02*
G03*
X2210012Y1224630I-6000J0D01*
G75*
G01*
X2129988Y1185370D02*
G02*
X2123988Y1191370I0J6000D01*
G75*
G01*
X2123988Y1218630D02*
G02*
X2129988Y1224630I6000J0D01*
G75*
G01*
X1970012Y1200370D02*
G03*
X1976012Y1206370I0J6000D01*
G75*
G01*
X1976012Y1233630D02*
G03*
X1970012Y1239630I-6000J0D01*
G75*
G01*
X1889988Y1200370D02*
G02*
X1883988Y1206370I0J6000D01*
G75*
G01*
X1883988Y1233630D02*
G02*
X1889988Y1239630I6000J0D01*
G75*
G01*
X2004988Y1224630D02*
G03*
X1998988Y1218630I0J-6000D01*
G75*
G01*
X1998988Y1191370D02*
G03*
X2004988Y1185370I6000J0D01*
G75*
G01*
X2085012Y1224630D02*
G02*
X2091012Y1218630I0J-6000D01*
G75*
G01*
X2091012Y1191370D02*
G02*
X2085012Y1185370I-6000J0D01*
G75*
G01*
X1320012Y1335370D02*
G03*
X1326012Y1341370I0J6000D01*
G75*
G01*
X1326012Y1368630D02*
G03*
X1320012Y1374630I-6000J0D01*
G75*
G01*
X1239988Y1335370D02*
G02*
X1233988Y1341370I0J6000D01*
G75*
G01*
X1233988Y1368630D02*
G02*
X1239988Y1374630I6000J0D01*
G75*
G01*
X2156307Y1254425D02*
G03*
X2162307Y1260425I0J6000D01*
G75*
G01*
X2162307Y1319575D02*
G03*
X2156307Y1325575I-6000J0D01*
G75*
G01*
X2013693Y1254425D02*
G02*
X2007693Y1260425I0J6000D01*
G75*
G01*
X2007693Y1319575D02*
G02*
X2013693Y1325575I6000J0D01*
D14*
G75*
G01*
X1521676Y214549D02*
G03*
X2060531Y221381I268324J90450D01*
G75*
G01*
X2062347Y389805D02*
G03*
X1517912Y390634I-272347J-84804D01*
G75*
G01*
X2316676Y214549D02*
G03*
X2855531Y221381I268324J90450D01*
G75*
G01*
X2857347Y389805D02*
G03*
X2312912Y390634I-272347J-84804D01*
D10*
G75*
G01*
X1380370Y1099988D02*
G03*
X1386370Y1093988I6000J0D01*
G75*
G01*
X1413630Y1093988D02*
G03*
X1419630Y1099988I0J6000D01*
G75*
G01*
X1380370Y1180012D02*
G02*
X1386370Y1186012I6000J0D01*
G75*
G01*
X1413630Y1186012D02*
G02*
X1419630Y1180012I0J-6000D01*
D11*
G75*
G01
X1230290Y195000D02*
G03X1230290Y195000I-45280J0D01*
D14*
G75*
G01
X1741180Y960950D02*
G03X1741180Y960950I-2950J0D01*
D11*
G75*
G01
X1230280Y490050D02*
G03X1230280Y490050I-45280J0D01*
M02*
