G04 Layer: TopLayer*
G04 EasyEDA v6.5.22, 2023-04-13 23:23:34*
G04 8da0a1a92f474effb9e69289645bcd93,716f0268f4a04d1f8e2d1e8369cd39e0,10*
G04 Gerber Generator version 0.2*
G04 Scale: 100 percent, Rotated: No, Reflected: No *
G04 Dimensions in inches *
G04 leading zeros omitted , absolute positions ,3 integer and 6 decimal *
%FSLAX36Y36*%
%MOIN*%

%AMMACRO1*21,1,$1,$2,0,0,$3*%
%ADD10C,0.0100*%
%ADD11C,0.0080*%
%ADD12MACRO1,0.0213X0.0223X0.0000*%
%ADD13R,0.0213X0.0223*%
%ADD14R,0.0630X0.0157*%
%ADD15O,0.074803X0.047244*%
%ADD16MACRO1,0.0213X0.0311X0.0000*%
%ADD17R,0.0213X0.0311*%
%ADD18MACRO1,0.0213X0.0311X90.0000*%
%ADD19MACRO1,0.0213X0.0311X-90.0000*%
%ADD20MACRO1,0.0531X0.0555X90.0000*%
%ADD21R,0.0236X0.0236*%
%ADD22R,0.0394X0.0492*%
%ADD23R,0.0236X0.0421*%
%ADD24MACRO1,0.0213X0.0223X-90.0000*%
%ADD25MACRO1,0.0213X0.0223X90.0000*%
%ADD26R,0.0591X0.0394*%
%ADD27R,0.0472X0.1024*%
%ADD28R,0.0356X0.0110*%
%ADD29R,0.0110X0.0356*%
%ADD30R,0.1319X0.1319*%
%ADD31R,0.0386X0.0972*%
%ADD32MACRO1,0.1417X0.0972X0.0000*%
%ADD33R,0.0374X0.0827*%
%ADD34R,0.0827X0.0374*%
%ADD35R,0.0354X0.0354*%
%ADD36R,0.1575X0.0906*%
%ADD37R,0.1732X0.0906*%
%ADD38R,0.0394X0.0394*%
%ADD39C,0.0394*%
%ADD40O,0.055118X0.047244*%
%ADD41C,0.0551*%
%ADD42R,0.0600X0.0551*%
%ADD43C,0.0240*%
%ADD44C,0.0300*%
%ADD45C,0.0189*%

%LPD*%
D10*
X2104960Y305000D02*
G01*
X2270039Y305000D01*
X2995000Y625000D02*
G01*
X3055000Y625000D01*
X3055000Y495000D01*
X3000000Y495000D01*
X3080000Y440000D02*
G01*
X3000000Y440000D01*
X2954429Y1449331D02*
G01*
X2954429Y1375571D01*
X2955000Y1375000D01*
X2404429Y740668D02*
G01*
X2265668Y740668D01*
X2260000Y735000D01*
X2177040Y765000D02*
G01*
X2182040Y770000D01*
X2310000Y770000D01*
X2704430Y740670D02*
G01*
X2704430Y810000D01*
X2905000Y607040D02*
G01*
X2860000Y607040D01*
D11*
X2905000Y572959D02*
G01*
X2907039Y575000D01*
X2995000Y575000D01*
D10*
X3054429Y740668D02*
G01*
X3080000Y740668D01*
X3080000Y305000D01*
X2899960Y305000D01*
X1520000Y621399D02*
G01*
X1481400Y621399D01*
X1450000Y590000D01*
X1876999Y695000D02*
G01*
X1951999Y620000D01*
X2815000Y620000D01*
X2904399Y709400D01*
X2904399Y740700D01*
X1956999Y695000D02*
G01*
X2011999Y640000D01*
X2800000Y640000D01*
X2854399Y694400D01*
X2854399Y740700D01*
X2203299Y685000D02*
G01*
X2643900Y685000D01*
X2643900Y740700D01*
X2654399Y740700D01*
X1660000Y621399D02*
G01*
X1761400Y621401D01*
X1761400Y580000D01*
X2015000Y580000D01*
X1679399Y1450000D02*
G01*
X1679399Y1425599D01*
X1770000Y1335000D01*
X1920000Y1335000D01*
X1955000Y1300000D01*
X1955000Y1223499D01*
X1951499Y1220000D01*
X2145000Y1447040D02*
G01*
X2262960Y1447040D01*
X2330000Y1380000D01*
X2659399Y1380000D01*
D11*
X2345571Y1319989D02*
G01*
X2299989Y1319989D01*
X2285000Y1305000D01*
D10*
X2191499Y1205000D02*
G01*
X2191499Y1290000D01*
X2124399Y1290000D01*
X2654399Y1449299D02*
G01*
X2654399Y1380000D01*
X2659399Y1380000D01*
X2145000Y1413000D02*
G01*
X2266999Y1413000D01*
X2325000Y1355000D01*
X2920000Y1355000D01*
X2950000Y1325000D01*
X3005000Y1325000D01*
X3010000Y1330000D01*
X3010000Y1375000D01*
D11*
X2045630Y1290000D02*
G01*
X2066459Y1269169D01*
X2066459Y1205000D01*
D10*
X1975000Y1430000D02*
G01*
X1975000Y1290000D01*
X2045630Y1290000D01*
X1975000Y1305000D02*
G01*
X1975000Y1270000D01*
X1985000Y1260000D01*
X1187250Y1066179D02*
G01*
X1270497Y1066179D01*
X1270497Y1105500D01*
X1300000Y1105500D01*
X1187250Y1040590D02*
G01*
X1264909Y1040590D01*
X1300000Y1005500D01*
X1187250Y1015000D02*
G01*
X1224997Y1015000D01*
X1275469Y964529D01*
X1300000Y964529D01*
X1080000Y1160000D02*
G01*
X1082920Y1157080D01*
X1082920Y873270D01*
X1082920Y1156729D02*
G01*
X1124179Y1115470D01*
X1197084Y1110470D01*
X1258540Y1355000D02*
G01*
X1230000Y1355000D01*
X1197079Y1322080D01*
X1197079Y1110470D01*
D11*
X1082915Y873270D02*
G01*
X1129174Y919529D01*
X1197084Y919529D01*
D10*
X1197079Y919529D02*
G01*
X1285969Y919529D01*
X1300000Y905500D01*
X1082920Y873270D02*
G01*
X1064921Y873270D01*
X1064921Y549099D01*
D11*
X1197079Y919529D02*
G01*
X1187543Y929065D01*
X1187543Y968820D01*
D10*
X3054430Y1449330D02*
G01*
X3060000Y1443760D01*
X3060000Y1375000D01*
X3004430Y1449330D02*
G01*
X3010000Y1443760D01*
X3010000Y1375000D01*
X1064920Y135940D02*
G01*
X1305079Y135940D01*
X1064920Y254050D02*
G01*
X1305079Y254050D01*
X1064899Y254099D02*
G01*
X1015000Y304000D01*
X1015000Y505000D01*
X1064899Y549099D01*
X1064920Y549099D02*
G01*
X1305069Y549099D01*
X1305069Y549099D02*
G01*
X1317430Y561460D01*
X1385000Y561460D01*
X1064920Y430990D02*
G01*
X1305069Y430990D01*
X1305069Y430990D02*
G01*
X1385000Y510920D01*
X1385000Y518539D01*
X1917039Y875000D02*
G01*
X1920000Y877959D01*
X1920000Y930000D01*
X1305079Y135940D02*
G01*
X1309139Y140000D01*
X1375000Y140000D01*
X1310000Y1445000D02*
G01*
X1301459Y1436460D01*
X1301459Y1355000D01*
X1478311Y1300000D02*
G01*
X1483311Y1305000D01*
X1557960Y1305000D01*
X1260000Y1445000D02*
G01*
X1258540Y1443539D01*
X1258540Y1355000D01*
X1475039Y305000D02*
G01*
X1475039Y320039D01*
X1530000Y375000D01*
X1600630Y1450000D02*
G01*
X1600630Y1405630D01*
X1580000Y1385000D01*
X1652997Y1200000D02*
G01*
X1655000Y1200000D01*
X1655000Y1240000D01*
X2019449Y1096610D02*
G01*
X2016059Y1100000D01*
X1980000Y1100000D01*
X1300000Y964499D02*
G01*
X1336999Y964899D01*
X1345000Y965000D01*
X1300000Y1005500D02*
G01*
X1339700Y1005100D01*
X1339700Y1005100D01*
X1345000Y1005000D01*
X1300000Y1070000D02*
G01*
X1300000Y1064499D01*
X1300000Y1064499D02*
G01*
X1340000Y1065000D01*
X1300000Y1105470D02*
G01*
X1313069Y1118539D01*
X1400000Y1118539D01*
X1300000Y1164529D02*
G01*
X1303069Y1161460D01*
X1400000Y1161460D01*
X1878540Y825000D02*
G01*
X1835000Y825000D01*
X1855000Y1125000D02*
G01*
X1860000Y1120000D01*
X1895000Y1120000D01*
X1400000Y1118499D02*
G01*
X1401499Y1120000D01*
X1400000Y1118539D02*
G01*
X1401459Y1120000D01*
X1455000Y1120000D01*
X1400000Y1161460D02*
G01*
X1438540Y1200000D01*
X1472960Y1200000D01*
X1552959Y1200000D02*
G01*
X1552959Y1270000D01*
X1775000Y1270000D01*
X1775000Y1305000D01*
X1592039Y1305000D01*
X1775000Y1270000D02*
G01*
X1798500Y1270000D01*
X1798500Y1125000D01*
X1652959Y1200000D02*
G01*
X1655000Y1197959D01*
X1655000Y1185000D01*
X1675000Y1165000D01*
X1732960Y1200000D02*
G01*
X1687039Y1200000D01*
X1767039Y1200000D02*
G01*
X1767039Y1172040D01*
X1755000Y1160000D01*
X1951459Y1220000D02*
G01*
X1980000Y1191460D01*
X1980000Y1100000D01*
X1908540Y1220000D02*
G01*
X1895000Y1206460D01*
X1895000Y1120000D01*
X2066459Y1205000D02*
G01*
X2148540Y1205000D01*
X2200551Y1096608D02*
G01*
X2285000Y1181057D01*
X2285000Y1305000D01*
X2023540Y1205000D02*
G01*
X2025000Y1203539D01*
X2025000Y1190000D01*
X2110000Y1105000D01*
X2110000Y1096599D01*
X2191459Y1205000D02*
G01*
X2191459Y1178069D01*
X2110000Y1096608D01*
X2110000Y1096610D02*
G01*
X2110000Y873389D01*
X2110000Y873389D02*
G01*
X2177039Y806350D01*
X2177039Y765000D01*
X1922959Y695000D02*
G01*
X1877959Y740000D01*
X1815000Y740000D01*
X1922959Y695000D02*
G01*
X1915000Y695000D01*
X2075000Y1430000D02*
G01*
X2092039Y1447040D01*
X2145000Y1447040D01*
X2145000Y1412959D02*
G01*
X2124369Y1392328D01*
X2124369Y1290000D01*
X2350571Y1314989D02*
G01*
X2591090Y1314989D01*
X2696909Y1209169D01*
X2701908Y1204169D02*
G01*
X2696909Y1199171D01*
X2696909Y1154050D01*
X2696909Y1098939D02*
G01*
X2696909Y1144050D01*
X2701908Y1149050D01*
X2752030Y1209169D02*
G01*
X2752030Y1154061D01*
X2757030Y1149059D01*
X2757030Y1149059D02*
G01*
X2752030Y1144059D01*
X2752030Y1098939D01*
X2696909Y1098939D02*
G01*
X2752031Y1098939D01*
X2757030Y1093939D01*
X2757030Y1204169D02*
G01*
X2802150Y1204169D01*
X2807150Y1209169D01*
X2807150Y1209169D02*
G01*
X3060000Y1209169D01*
X3060000Y1375000D01*
X2757030Y1093939D02*
G01*
X2802150Y1093939D01*
X2807150Y1098939D01*
X2807150Y1154050D02*
G01*
X2761953Y1154050D01*
X2757002Y1149099D01*
X1385000Y518539D02*
G01*
X1557160Y518539D01*
X1660000Y621379D01*
X1917039Y875000D02*
G01*
X1921459Y870579D01*
X1921459Y825000D01*
X1300000Y1164499D02*
G01*
X1250000Y1165000D01*
X1557402Y718620D02*
G01*
X1557402Y752597D01*
X1530000Y780000D01*
X1557040Y820000D02*
G01*
X1557040Y782959D01*
X1590000Y750000D01*
X1622959Y820000D02*
G01*
X1622597Y819641D01*
X1622597Y718620D01*
X1655000Y810000D02*
G01*
X1655000Y780000D01*
X1730000Y850000D02*
G01*
X1622959Y850000D01*
X1622959Y820000D01*
X1673999Y926399D02*
G01*
X1730000Y926399D01*
X1730000Y850000D01*
X1522959Y820000D02*
G01*
X1482597Y779641D01*
X1482597Y718620D01*
X1842959Y695000D02*
G01*
X1805000Y695000D01*
X1863500Y983499D02*
G01*
X1820000Y983499D01*
X1708599Y1079099D02*
G01*
X1820000Y1080000D01*
X1820000Y1026500D01*
X1798540Y1125000D02*
G01*
X1798540Y1111460D01*
X1820000Y1090000D01*
X1820000Y1026460D01*
D11*
X1708599Y1020000D02*
G01*
X1780000Y1020000D01*
X1780000Y1010000D01*
X1708599Y1039699D02*
G01*
X1780000Y1039699D01*
X1780000Y1050000D01*
X1673999Y1113600D02*
G01*
X1683599Y1113600D01*
X1705000Y1135000D01*
X1705000Y1200000D01*
X1686999Y1200000D01*
X1586999Y1200000D02*
G01*
X1585000Y1198000D01*
X1585000Y1175000D01*
X1625000Y1175000D01*
X1654399Y1145599D01*
X1654399Y1113600D01*
X1506999Y1200000D02*
G01*
X1506999Y1155000D01*
X1605000Y1155000D01*
X1615000Y1145000D01*
X1615000Y1113600D01*
D10*
X1708599Y1059369D02*
G01*
X1708599Y1079059D01*
D11*
X1708599Y1000320D02*
G01*
X1634679Y1000320D01*
X1615000Y1020000D01*
X1708599Y1000300D02*
G01*
X1739700Y1000300D01*
X1756499Y983499D01*
X1820000Y983499D01*
X1634700Y926399D02*
G01*
X1635000Y885000D01*
X1690000Y885000D01*
X1615000Y926001D02*
G01*
X1615000Y885000D01*
X1595000Y865000D01*
D10*
X2142960Y765000D02*
G01*
X2116689Y738730D01*
X2116689Y685000D01*
X1820000Y1026500D02*
G01*
X1821499Y1025000D01*
X1900000Y1025000D01*
X1900000Y960000D01*
X1883000Y943000D01*
X1883000Y875000D01*
D11*
X1595299Y926399D02*
G01*
X1595299Y900300D01*
X1585000Y890000D01*
X1575000Y890000D01*
X1523000Y838000D01*
X1523000Y820000D01*
X1697402Y718620D02*
G01*
X1697402Y757597D01*
X1695000Y760000D01*
D10*
X2110000Y860000D02*
G01*
X2110000Y873389D01*
X1900000Y1025000D02*
G01*
X2110000Y1024099D01*
X1310000Y1445000D02*
G01*
X1310000Y1475000D01*
X1521890Y1475000D01*
X1521890Y1450000D01*
D11*
X1475000Y1240000D02*
G01*
X1472959Y1240000D01*
X1472959Y1200000D01*
D10*
X1391689Y1300000D02*
G01*
X1451689Y1240000D01*
X1475000Y1240000D01*
X1758109Y1450000D02*
G01*
X1760000Y1448110D01*
X1760000Y1385000D01*
X2807150Y1098939D02*
G01*
X2807150Y1091649D01*
X3059399Y839398D01*
X3059399Y735700D01*
D12*
G01*
X2905000Y607040D03*
D13*
G01*
X2905000Y572959D03*
D14*
G01*
X1187250Y1066179D03*
G01*
X1187250Y1040590D03*
G01*
X1187250Y1015000D03*
G01*
X1187250Y989409D03*
G01*
X1187550Y963820D03*
D15*
G01*
X1082920Y1156729D03*
D16*
G01*
X1385000Y518541D03*
D17*
G01*
X1385000Y561460D03*
D18*
G01*
X1921459Y825000D03*
G01*
X1878540Y825000D03*
D16*
G01*
X1820000Y1026458D03*
D17*
G01*
X1820000Y983539D03*
D19*
G01*
X1798540Y1125000D03*
G01*
X1841459Y1125000D03*
D18*
G01*
X2191459Y1205000D03*
G01*
X2148540Y1205000D03*
G01*
X1951459Y1220000D03*
G01*
X1908540Y1220000D03*
D19*
G01*
X2023540Y1205000D03*
G01*
X2066459Y1205000D03*
D18*
G01*
X1301459Y1355000D03*
G01*
X1258540Y1355000D03*
D20*
G01*
X2124371Y1290000D03*
G01*
X2045628Y1290000D03*
D21*
G01*
X1300000Y964529D03*
G01*
X1300000Y905470D03*
G01*
X1300000Y1064529D03*
G01*
X1300000Y1005470D03*
G01*
X1300000Y1105470D03*
G01*
X1300000Y1164529D03*
D22*
G01*
X1478310Y1300000D03*
G01*
X1391689Y1300000D03*
G01*
X2116689Y685000D03*
G01*
X2203310Y685000D03*
D23*
G01*
X1557399Y718620D03*
G01*
X1482600Y718620D03*
G01*
X1520000Y621379D03*
G01*
X1697399Y718620D03*
G01*
X1622600Y718620D03*
G01*
X1660000Y621379D03*
D12*
G01*
X2145000Y1412959D03*
D13*
G01*
X2145000Y1447040D03*
D24*
G01*
X1882959Y875000D03*
G01*
X1917040Y875000D03*
D25*
G01*
X1592040Y1305000D03*
G01*
X1557959Y1305000D03*
G01*
X2177040Y765000D03*
G01*
X2142959Y765000D03*
D24*
G01*
X1552959Y1200000D03*
G01*
X1587040Y1200000D03*
G01*
X1652959Y1200000D03*
G01*
X1687040Y1200000D03*
G01*
X1472959Y1200000D03*
G01*
X1507040Y1200000D03*
G01*
X1732959Y1200000D03*
G01*
X1767040Y1200000D03*
G01*
X1842959Y695000D03*
G01*
X1877040Y695000D03*
G01*
X1922959Y695000D03*
G01*
X1957040Y695000D03*
G01*
X1622959Y820000D03*
G01*
X1657040Y820000D03*
G01*
X1522959Y820000D03*
G01*
X1557040Y820000D03*
D26*
G01*
X1305079Y135940D03*
G01*
X1064920Y135940D03*
G01*
X1305079Y254050D03*
G01*
X1064920Y254050D03*
D27*
G01*
X1975000Y1430000D03*
G01*
X2075000Y1430000D03*
D28*
G01*
X1708599Y960949D03*
G01*
X1708599Y980630D03*
G01*
X1708599Y1000320D03*
G01*
X1708599Y1020000D03*
G01*
X1708599Y1039690D03*
G01*
X1708599Y1059369D03*
G01*
X1708599Y1079059D03*
D29*
G01*
X1674049Y1113600D03*
G01*
X1654369Y1113600D03*
G01*
X1634679Y1113600D03*
G01*
X1615000Y1113600D03*
G01*
X1595309Y1113600D03*
G01*
X1575630Y1113600D03*
G01*
X1555940Y1113600D03*
D28*
G01*
X1521400Y1079059D03*
G01*
X1521400Y1059369D03*
G01*
X1521400Y1039690D03*
G01*
X1521400Y1020000D03*
G01*
X1521400Y1000320D03*
G01*
X1521400Y980630D03*
G01*
X1521400Y960949D03*
D29*
G01*
X1555940Y926399D03*
G01*
X1575630Y926399D03*
G01*
X1595309Y926399D03*
G01*
X1615000Y926399D03*
G01*
X1634679Y926399D03*
G01*
X1654369Y926399D03*
G01*
X1674049Y926399D03*
D30*
G01*
X1615000Y1020000D03*
D31*
G01*
X2200550Y1096610D03*
G01*
X2110000Y1096610D03*
G01*
X2019449Y1096610D03*
D32*
G01*
X2110000Y873386D03*
D33*
G01*
X3054430Y1449330D03*
G01*
X3004430Y1449330D03*
G01*
X2954430Y1449330D03*
G01*
X2904430Y1449330D03*
G01*
X2854430Y1449330D03*
G01*
X2804430Y1449330D03*
G01*
X2754430Y1449330D03*
G01*
X2704430Y1449330D03*
G01*
X2654430Y1449330D03*
G01*
X2604430Y1449330D03*
G01*
X2554430Y1449330D03*
G01*
X2504430Y1449330D03*
G01*
X2454430Y1449330D03*
G01*
X2404430Y1449330D03*
D34*
G01*
X2345569Y1319989D03*
G01*
X2345569Y1269989D03*
G01*
X2345569Y1219989D03*
G01*
X2345569Y1169989D03*
G01*
X2345569Y1119989D03*
G01*
X2345569Y1069989D03*
G01*
X2345569Y1019989D03*
G01*
X2345569Y969989D03*
G01*
X2345569Y919989D03*
G01*
X2345569Y869989D03*
D33*
G01*
X2404430Y740670D03*
G01*
X2454430Y740670D03*
G01*
X2504430Y740670D03*
G01*
X2554430Y740670D03*
G01*
X2604430Y740670D03*
G01*
X2654430Y740670D03*
G01*
X2704430Y740670D03*
G01*
X2754430Y740670D03*
G01*
X2804430Y740670D03*
G01*
X2854430Y740670D03*
G01*
X2904430Y740670D03*
G01*
X2954430Y740670D03*
G01*
X3004430Y740670D03*
G01*
X3054430Y740670D03*
D35*
G01*
X2752030Y1154059D03*
G01*
X2752030Y1209169D03*
G01*
X2752030Y1098939D03*
G01*
X2807150Y1098939D03*
G01*
X2807150Y1154050D03*
G01*
X2807150Y1209169D03*
G01*
X2696909Y1209169D03*
G01*
X2696909Y1154050D03*
G01*
X2696909Y1098939D03*
D36*
G01*
X2104960Y305000D03*
D37*
G01*
X1475039Y305000D03*
D36*
G01*
X2899960Y305000D03*
D37*
G01*
X2270039Y305000D03*
D26*
G01*
X1305069Y430990D03*
G01*
X1064920Y430990D03*
G01*
X1305069Y549099D03*
G01*
X1064920Y549099D03*
D16*
G01*
X1400000Y1118541D03*
D17*
G01*
X1400000Y1161460D03*
D38*
G01*
X2995000Y575000D03*
D39*
G01*
X2995000Y625000D03*
D40*
G01*
X1197079Y919529D03*
G01*
X1197079Y1110470D03*
D15*
G01*
X1082920Y873270D03*
D38*
G01*
X1310000Y1445000D03*
D39*
G01*
X1260000Y1445000D03*
D41*
G01*
X1521890Y1450000D03*
G01*
X1600630Y1450000D03*
G01*
X1679369Y1450000D03*
D42*
G01*
X1758109Y1450000D03*
D43*
G01*
X2260000Y735000D03*
G01*
X2955000Y1375000D03*
G01*
X1695000Y760000D03*
G01*
X1530000Y780000D03*
G01*
X1590000Y750000D03*
G01*
X1655000Y780000D03*
G01*
X1920000Y930000D03*
G01*
X1375000Y140000D03*
G01*
X1450000Y590000D03*
G01*
X1530000Y375000D03*
G01*
X1580000Y1385000D03*
G01*
X1760000Y1385000D03*
G01*
X1655000Y1240000D03*
G01*
X1980000Y1100000D03*
G01*
X1595000Y865000D03*
G01*
X1690000Y885000D03*
G01*
X1805000Y695000D03*
G01*
X1815000Y740000D03*
G01*
X1780000Y1050000D03*
G01*
X1780000Y1010000D03*
G01*
X1345000Y1005000D03*
G01*
X1345000Y965000D03*
G01*
X1340000Y1065000D03*
G01*
X1863500Y983499D03*
G01*
X1835000Y825000D03*
G01*
X1895000Y1120000D03*
G01*
X1675000Y1165000D03*
G01*
X1455000Y1120000D03*
G01*
X1755000Y1160000D03*
G01*
X1475000Y1240000D03*
G01*
X1985000Y1260000D03*
G01*
X2285000Y1305000D03*
G01*
X2015000Y580000D03*
G01*
X1250000Y1165000D03*
G01*
X2310000Y770000D03*
G01*
X2704430Y810000D03*
G01*
X2860000Y607040D03*
D44*
G01*
X3000000Y440000D03*
G01*
X3000000Y495000D03*
M02*
