G04 Layer: BottomLayer*
G04 EasyEDA v6.5.22, 2023-04-13 23:23:34*
G04 8da0a1a92f474effb9e69289645bcd93,716f0268f4a04d1f8e2d1e8369cd39e0,10*
G04 Gerber Generator version 0.2*
G04 Scale: 100 percent, Rotated: No, Reflected: No *
G04 Dimensions in inches *
G04 leading zeros omitted , absolute positions ,3 integer and 6 decimal *
%FSLAX36Y36*%
%MOIN*%

%ADD10C,0.0100*%
%ADD11R,0.0394X0.0394*%
%ADD12C,0.0394*%
%ADD13O,0.055118X0.047244*%
%ADD14O,0.074803X0.047244*%
%ADD15C,0.0551*%
%ADD16R,0.0600X0.0551*%
%ADD17C,0.0240*%
%ADD18C,0.0300*%

%LPD*%
D10*
X1985000Y1260000D02*
G01*
X2240000Y1260000D01*
X2285000Y1305000D01*
X1920000Y930000D02*
G01*
X2510000Y930000D01*
X2955000Y1375000D01*
X2260000Y735000D02*
G01*
X2105000Y580000D01*
X2015000Y580000D01*
X2310000Y770000D02*
G01*
X2310000Y805000D01*
X2595000Y805000D01*
X2793000Y606999D01*
X2860000Y606999D01*
X2704430Y810000D02*
G01*
X2810000Y810000D01*
X2995000Y625000D01*
X1450000Y590000D02*
G01*
X1510000Y590000D01*
X1197100Y1115500D02*
G01*
X1197100Y1115500D01*
X1247500Y1065000D01*
X1340000Y1065000D01*
X1250000Y1165000D02*
G01*
X1197079Y1112080D01*
X1197079Y1110470D01*
X1530000Y375000D02*
G01*
X1145000Y760000D01*
X1145000Y1315000D01*
X1215000Y1385000D01*
X1580000Y1385000D01*
X1920000Y930000D02*
G01*
X1920000Y685000D01*
X1375000Y140000D01*
X1760000Y1385000D02*
G01*
X1655000Y1280000D01*
X1655000Y1240000D01*
X1450000Y590000D02*
G01*
X1825000Y590000D01*
X1825277Y590277D01*
X1690000Y885000D02*
G01*
X1815000Y760000D01*
X1815000Y740000D01*
X1863500Y983499D02*
G01*
X1835000Y955000D01*
X1835000Y825000D01*
X1895000Y1120000D02*
G01*
X1863500Y1088499D01*
X1863500Y1040799D01*
X1863500Y983499D01*
X1985000Y1100000D02*
G01*
X1980000Y1100000D01*
X1455000Y1120000D02*
G01*
X1500000Y1165000D01*
X1675000Y1165000D01*
X1475000Y1240000D02*
G01*
X1515000Y1200000D01*
X1755000Y1200000D01*
X1755000Y1160000D01*
X1755000Y1160000D02*
G01*
X1895000Y1160000D01*
X1895000Y1120000D01*
X1530000Y780000D02*
G01*
X1655000Y780000D01*
X1590000Y750000D02*
G01*
X1685000Y750000D01*
X1695000Y760000D01*
X1595000Y865000D02*
G01*
X1595000Y805000D01*
X1700000Y805000D01*
X1805000Y700000D01*
X1805000Y695000D01*
X1345000Y965000D02*
G01*
X1390000Y1010000D01*
X1780000Y1010000D01*
X1345000Y1005000D02*
G01*
X1395000Y1055000D01*
X1780000Y1055000D01*
X1780000Y1050000D01*
X1895000Y1120000D02*
G01*
X1985000Y1210000D01*
X1985000Y1260000D01*
D11*
G01*
X2995000Y575000D03*
D12*
G01*
X2995000Y625000D03*
D13*
G01*
X1197079Y919529D03*
G01*
X1197079Y1110470D03*
D14*
G01*
X1082920Y873270D03*
D11*
G01*
X1310000Y1445000D03*
D12*
G01*
X1260000Y1445000D03*
D15*
G01*
X1521890Y1450000D03*
G01*
X1600630Y1450000D03*
G01*
X1679369Y1450000D03*
D16*
G01*
X1758109Y1450000D03*
D17*
G01*
X2260000Y735000D03*
G01*
X2955000Y1375000D03*
G01*
X1695000Y760000D03*
G01*
X1530000Y780000D03*
G01*
X1590000Y750000D03*
G01*
X1655000Y780000D03*
G01*
X1920000Y930000D03*
G01*
X1375000Y140000D03*
G01*
X1450000Y590000D03*
G01*
X1530000Y375000D03*
G01*
X1580000Y1385000D03*
G01*
X1760000Y1385000D03*
G01*
X1655000Y1240000D03*
G01*
X1980000Y1100000D03*
G01*
X1595000Y865000D03*
G01*
X1690000Y885000D03*
G01*
X1805000Y695000D03*
G01*
X1815000Y740000D03*
G01*
X1780000Y1050000D03*
G01*
X1780000Y1010000D03*
G01*
X1345000Y1005000D03*
G01*
X1345000Y965000D03*
G01*
X1340000Y1065000D03*
G01*
X1863500Y983499D03*
G01*
X1835000Y825000D03*
G01*
X1895000Y1120000D03*
G01*
X1675000Y1165000D03*
G01*
X1455000Y1120000D03*
G01*
X1755000Y1160000D03*
G01*
X1475000Y1240000D03*
G01*
X1985000Y1260000D03*
G01*
X2285000Y1305000D03*
G01*
X2015000Y580000D03*
G01*
X1250000Y1165000D03*
G01*
X2310000Y770000D03*
G01*
X2704430Y810000D03*
G01*
X2860000Y607040D03*
D18*
G01*
X3000000Y440000D03*
G01*
X3000000Y495000D03*
M02*
