G04 Layer: TopPasteMaskLayer*
G04 EasyEDA v6.5.22, 2023-04-13 23:23:34*
G04 8da0a1a92f474effb9e69289645bcd93,716f0268f4a04d1f8e2d1e8369cd39e0,10*
G04 Gerber Generator version 0.2*
G04 Scale: 100 percent, Rotated: No, Reflected: No *
G04 Dimensions in inches *
G04 leading zeros omitted , absolute positions ,3 integer and 6 decimal *
%FSLAX36Y36*%
%MOIN*%

%AMMACRO1*21,1,$1,$2,0,0,$3*%
%ADD10O,0.074803X0.047244*%
%ADD11R,0.0236X0.0236*%
%ADD12R,0.0394X0.0492*%
%ADD13R,0.0236X0.0421*%
%ADD14R,0.0591X0.0394*%
%ADD15R,0.0472X0.1024*%
%ADD16R,0.0386X0.0972*%
%ADD17MACRO1,0.1417X0.0972X0.0000*%
%ADD18R,0.0374X0.0827*%
%ADD19R,0.0827X0.0374*%
%ADD20R,0.0354X0.0354*%
%ADD21R,0.1575X0.0906*%
%ADD22R,0.1732X0.0906*%
%ADD23R,0.0117X0.0906*%

%LPD*%
G36*
X2895940Y618180D02*
G01*
X2894360Y616600D01*
X2894360Y596880D01*
X2895940Y595320D01*
X2914060Y595320D01*
X2915640Y596880D01*
X2915640Y616600D01*
X2914060Y618180D01*
G37*
G36*
X2895940Y584680D02*
G01*
X2894360Y583120D01*
X2894360Y563400D01*
X2895940Y561820D01*
X2914060Y561820D01*
X2915640Y563400D01*
X2915640Y583120D01*
X2914060Y584680D01*
G37*
G36*
X1195120Y943340D02*
G01*
X1186860Y942560D01*
X1184480Y941760D01*
X1182280Y940600D01*
X1180280Y939100D01*
X1179360Y938220D01*
X1175040Y934680D01*
X1171900Y929560D01*
X1169140Y918940D01*
X1171900Y909100D01*
X1177000Y901220D01*
X1179240Y899720D01*
X1181660Y898540D01*
X1182920Y898080D01*
X1192760Y895699D01*
X1202600Y895699D01*
X1207720Y896500D01*
X1214440Y899940D01*
X1216720Y901540D01*
X1218780Y903420D01*
X1220560Y905540D01*
X1222080Y907880D01*
X1222720Y909120D01*
X1223740Y911720D01*
X1224140Y913060D01*
X1224640Y915780D01*
X1224600Y923060D01*
X1224260Y925759D01*
X1223580Y928379D01*
X1222580Y930920D01*
X1221280Y933300D01*
X1219680Y935500D01*
X1217820Y937480D01*
X1215720Y939220D01*
X1213420Y940660D01*
X1210960Y941820D01*
X1208380Y942660D01*
X1205700Y943180D01*
X1203000Y943340D01*
G37*
G36*
X1195120Y1134280D02*
G01*
X1186840Y1133500D01*
X1184480Y1132700D01*
X1183360Y1132160D01*
X1181240Y1130820D01*
X1179360Y1129160D01*
X1175040Y1125620D01*
X1171880Y1120500D01*
X1169140Y1109880D01*
X1171880Y1100040D01*
X1177000Y1092160D01*
X1179240Y1090660D01*
X1181660Y1089480D01*
X1182920Y1089000D01*
X1192760Y1086640D01*
X1202600Y1086640D01*
X1207720Y1087440D01*
X1213220Y1090180D01*
X1215600Y1091640D01*
X1217780Y1093380D01*
X1219700Y1095400D01*
X1221360Y1097640D01*
X1222080Y1098820D01*
X1223260Y1101340D01*
X1223740Y1102640D01*
X1224420Y1105340D01*
X1224640Y1106720D01*
X1224600Y1113980D01*
X1224480Y1115340D01*
X1223960Y1118020D01*
X1223120Y1120600D01*
X1221960Y1123060D01*
X1221280Y1124240D01*
X1219680Y1126440D01*
X1217820Y1128420D01*
X1215720Y1130140D01*
X1214600Y1130920D01*
X1212220Y1132220D01*
X1209680Y1133220D01*
X1207040Y1133900D01*
X1204360Y1134240D01*
G37*
G36*
X1065600Y896900D02*
G01*
X1062980Y896720D01*
X1060400Y896200D01*
X1057900Y895360D01*
X1055560Y894200D01*
X1053360Y892740D01*
X1051400Y891000D01*
X1049660Y889040D01*
X1048199Y886860D01*
X1047039Y884500D01*
X1046200Y882000D01*
X1045680Y879440D01*
X1045520Y876820D01*
X1045560Y868439D01*
X1045879Y865879D01*
X1046520Y863400D01*
X1046940Y862180D01*
X1048040Y859860D01*
X1049420Y857700D01*
X1051060Y855699D01*
X1052940Y853960D01*
X1055020Y852440D01*
X1057260Y851200D01*
X1058440Y850680D01*
X1060900Y849900D01*
X1063420Y849419D01*
X1065980Y849260D01*
X1066180Y849599D01*
X1099060Y849640D01*
X1101720Y849820D01*
X1103040Y850020D01*
X1105620Y850680D01*
X1108100Y851660D01*
X1110440Y852960D01*
X1111560Y853700D01*
X1113600Y855400D01*
X1115440Y857360D01*
X1116260Y858400D01*
X1117680Y860660D01*
X1118820Y863080D01*
X1119280Y864340D01*
X1119940Y866919D01*
X1120280Y869580D01*
X1120320Y875639D01*
X1120140Y878300D01*
X1119940Y879620D01*
X1119280Y882200D01*
X1118300Y884680D01*
X1117000Y887020D01*
X1115440Y889180D01*
X1113600Y891120D01*
X1112600Y892020D01*
X1110440Y893580D01*
X1108100Y894860D01*
X1106880Y895400D01*
X1104340Y896220D01*
X1103040Y896520D01*
X1100380Y896840D01*
G37*
G36*
X1065600Y1180340D02*
G01*
X1062960Y1180180D01*
X1060400Y1179660D01*
X1057900Y1178820D01*
X1055560Y1177660D01*
X1053360Y1176200D01*
X1051400Y1174460D01*
X1049660Y1172500D01*
X1048199Y1170300D01*
X1047039Y1167960D01*
X1046200Y1165460D01*
X1045680Y1162880D01*
X1045520Y1160260D01*
X1045560Y1151900D01*
X1045879Y1149340D01*
X1046520Y1146860D01*
X1046940Y1145640D01*
X1048040Y1143320D01*
X1049420Y1141140D01*
X1051060Y1139160D01*
X1052940Y1137400D01*
X1055020Y1135900D01*
X1057260Y1134660D01*
X1058440Y1134140D01*
X1060900Y1133360D01*
X1063420Y1132880D01*
X1065980Y1132720D01*
X1066180Y1133060D01*
X1099060Y1133100D01*
X1101720Y1133280D01*
X1103040Y1133480D01*
X1105620Y1134140D01*
X1108100Y1135120D01*
X1110440Y1136420D01*
X1112600Y1137980D01*
X1114560Y1139820D01*
X1116260Y1141860D01*
X1117680Y1144120D01*
X1118820Y1146540D01*
X1119280Y1147800D01*
X1119940Y1150380D01*
X1120280Y1153020D01*
X1120320Y1159080D01*
X1120140Y1161760D01*
X1119940Y1163080D01*
X1119280Y1165660D01*
X1118300Y1168140D01*
X1117000Y1170480D01*
X1115440Y1172640D01*
X1113600Y1174580D01*
X1111560Y1176280D01*
X1109300Y1177720D01*
X1106880Y1178860D01*
X1104340Y1179680D01*
X1103040Y1179980D01*
X1100380Y1180300D01*
G37*
G36*
X1156060Y971700D02*
G01*
X1156060Y955939D01*
X1219040Y955939D01*
X1219040Y971700D01*
G37*
G36*
X1155740Y997280D02*
G01*
X1155740Y981540D01*
X1218740Y981540D01*
X1218740Y997280D01*
G37*
G36*
X1155740Y1022860D02*
G01*
X1155740Y1007120D01*
X1218740Y1007120D01*
X1218740Y1022860D01*
G37*
G36*
X1155740Y1048460D02*
G01*
X1155740Y1032720D01*
X1218740Y1032720D01*
X1218740Y1048460D01*
G37*
G36*
X1155740Y1074060D02*
G01*
X1155740Y1058300D01*
X1218740Y1058300D01*
X1218740Y1074060D01*
G37*
G36*
X1376140Y570700D02*
G01*
X1374180Y568740D01*
X1374180Y549840D01*
X1376140Y547080D01*
X1393860Y547080D01*
X1395820Y549840D01*
X1395820Y568740D01*
X1393860Y570700D01*
G37*
G36*
X1376140Y532920D02*
G01*
X1374180Y530160D01*
X1374180Y511260D01*
X1376140Y509300D01*
X1393860Y509300D01*
X1395820Y511260D01*
X1395820Y530160D01*
X1393860Y532920D01*
G37*
G36*
X1871260Y835819D02*
G01*
X1869300Y833860D01*
X1869300Y816140D01*
X1871260Y814180D01*
X1890160Y814180D01*
X1892920Y816140D01*
X1892920Y833860D01*
X1890160Y835819D01*
G37*
G36*
X1909840Y835819D02*
G01*
X1907080Y833860D01*
X1907080Y816140D01*
X1909840Y814180D01*
X1928740Y814180D01*
X1930700Y816140D01*
X1930700Y833860D01*
X1928740Y835819D01*
G37*
G36*
X1811140Y997920D02*
G01*
X1809180Y995160D01*
X1809180Y976260D01*
X1811140Y974300D01*
X1828860Y974300D01*
X1830820Y976260D01*
X1830820Y995160D01*
X1828860Y997920D01*
G37*
G36*
X1811140Y1035699D02*
G01*
X1809180Y1033740D01*
X1809180Y1014840D01*
X1811140Y1012080D01*
X1828860Y1012080D01*
X1830820Y1014840D01*
X1830820Y1033740D01*
X1828860Y1035699D01*
G37*
G36*
X1829840Y1135820D02*
G01*
X1827080Y1133860D01*
X1827080Y1116140D01*
X1829840Y1114180D01*
X1848740Y1114180D01*
X1850700Y1116140D01*
X1850700Y1133860D01*
X1848740Y1135820D01*
G37*
G36*
X1791260Y1135820D02*
G01*
X1789300Y1133860D01*
X1789300Y1116140D01*
X1791260Y1114180D01*
X1810160Y1114180D01*
X1812920Y1116140D01*
X1812920Y1133860D01*
X1810160Y1135820D01*
G37*
G36*
X2141260Y1215820D02*
G01*
X2139300Y1213860D01*
X2139300Y1196140D01*
X2141260Y1194180D01*
X2160160Y1194180D01*
X2162920Y1196140D01*
X2162920Y1213860D01*
X2160160Y1215820D01*
G37*
G36*
X2179840Y1215820D02*
G01*
X2177080Y1213860D01*
X2177080Y1196140D01*
X2179840Y1194180D01*
X2198740Y1194180D01*
X2200700Y1196140D01*
X2200700Y1213860D01*
X2198740Y1215820D01*
G37*
G36*
X1901260Y1230820D02*
G01*
X1899300Y1228860D01*
X1899300Y1211140D01*
X1901260Y1209180D01*
X1920160Y1209180D01*
X1922920Y1211140D01*
X1922920Y1228860D01*
X1920160Y1230820D01*
G37*
G36*
X1939840Y1230820D02*
G01*
X1937080Y1228860D01*
X1937080Y1211140D01*
X1939840Y1209180D01*
X1958740Y1209180D01*
X1960700Y1211140D01*
X1960700Y1228860D01*
X1958740Y1230820D01*
G37*
G36*
X2054840Y1215820D02*
G01*
X2052080Y1213860D01*
X2052080Y1196140D01*
X2054840Y1194180D01*
X2073740Y1194180D01*
X2075700Y1196140D01*
X2075700Y1213860D01*
X2073740Y1215820D01*
G37*
G36*
X2016260Y1215820D02*
G01*
X2014300Y1213860D01*
X2014300Y1196140D01*
X2016260Y1194180D01*
X2035160Y1194180D01*
X2037920Y1196140D01*
X2037920Y1213860D01*
X2035160Y1215820D01*
G37*
G36*
X1251260Y1365820D02*
G01*
X1249300Y1363860D01*
X1249300Y1346140D01*
X1251260Y1344180D01*
X1270160Y1344180D01*
X1272920Y1346140D01*
X1272920Y1363860D01*
X1270160Y1365820D01*
G37*
G36*
X1289840Y1365820D02*
G01*
X1287080Y1363860D01*
X1287080Y1346140D01*
X1289840Y1344180D01*
X1308740Y1344180D01*
X1310700Y1346140D01*
X1310700Y1363860D01*
X1308740Y1365820D01*
G37*
G36*
X2021020Y1317960D02*
G01*
X2019060Y1315980D01*
X2019060Y1265600D01*
X2021020Y1263620D01*
X2066300Y1263620D01*
X2068260Y1265600D01*
X2068080Y1282120D01*
X2050740Y1282120D01*
X2050740Y1299840D01*
X2068460Y1299840D01*
X2068260Y1315980D01*
X2066300Y1317960D01*
G37*
G36*
X2105660Y1317960D02*
G01*
X2103700Y1315980D01*
X2103900Y1299840D01*
X2121220Y1299840D01*
X2121220Y1282120D01*
X2103700Y1282120D01*
X2103700Y1265600D01*
X2105660Y1263620D01*
X2150940Y1263620D01*
X2152920Y1265600D01*
X2152920Y1315980D01*
X2150940Y1317960D01*
G37*
G36*
X2135940Y1424680D02*
G01*
X2134360Y1423120D01*
X2134360Y1403400D01*
X2135940Y1401819D01*
X2154060Y1401819D01*
X2155640Y1403400D01*
X2155640Y1423120D01*
X2154060Y1424680D01*
G37*
G36*
X2135940Y1458180D02*
G01*
X2134360Y1456600D01*
X2134360Y1436879D01*
X2135940Y1435320D01*
X2154060Y1435320D01*
X2155640Y1436879D01*
X2155640Y1456600D01*
X2154060Y1458180D01*
G37*
G36*
X1873400Y885639D02*
G01*
X1871819Y884060D01*
X1871819Y865939D01*
X1873400Y864360D01*
X1893100Y864360D01*
X1894680Y865939D01*
X1894680Y884060D01*
X1893100Y885639D01*
G37*
G36*
X1906900Y885639D02*
G01*
X1905320Y884060D01*
X1905320Y865939D01*
X1906900Y864360D01*
X1926600Y864360D01*
X1928180Y865939D01*
X1928180Y884060D01*
X1926600Y885639D01*
G37*
G36*
X1581900Y1315640D02*
G01*
X1580320Y1314060D01*
X1580320Y1295940D01*
X1581900Y1294360D01*
X1601600Y1294360D01*
X1603180Y1295940D01*
X1603180Y1314060D01*
X1601600Y1315640D01*
G37*
G36*
X1548400Y1315640D02*
G01*
X1546819Y1314060D01*
X1546819Y1295940D01*
X1548400Y1294360D01*
X1568100Y1294360D01*
X1569680Y1295940D01*
X1569680Y1314060D01*
X1568100Y1315640D01*
G37*
G36*
X2166900Y775639D02*
G01*
X2165320Y774060D01*
X2165320Y755939D01*
X2166900Y754360D01*
X2186600Y754360D01*
X2188180Y755939D01*
X2188180Y774060D01*
X2186600Y775639D01*
G37*
G36*
X2133400Y775639D02*
G01*
X2131820Y774060D01*
X2131820Y755939D01*
X2133400Y754360D01*
X2153100Y754360D01*
X2154680Y755939D01*
X2154680Y774060D01*
X2153100Y775639D01*
G37*
G36*
X1543400Y1210640D02*
G01*
X1541819Y1209060D01*
X1541819Y1190940D01*
X1543400Y1189360D01*
X1563100Y1189360D01*
X1564680Y1190940D01*
X1564680Y1209060D01*
X1563100Y1210640D01*
G37*
G36*
X1576900Y1210640D02*
G01*
X1575320Y1209060D01*
X1575320Y1190940D01*
X1576900Y1189360D01*
X1596600Y1189360D01*
X1598180Y1190940D01*
X1598180Y1209060D01*
X1596600Y1210640D01*
G37*
G36*
X1643400Y1210640D02*
G01*
X1641819Y1209060D01*
X1641819Y1190940D01*
X1643400Y1189360D01*
X1663100Y1189360D01*
X1664680Y1190940D01*
X1664680Y1209060D01*
X1663100Y1210640D01*
G37*
G36*
X1676900Y1210640D02*
G01*
X1675320Y1209060D01*
X1675320Y1190940D01*
X1676900Y1189360D01*
X1696600Y1189360D01*
X1698180Y1190940D01*
X1698180Y1209060D01*
X1696600Y1210640D01*
G37*
G36*
X1463400Y1210640D02*
G01*
X1461819Y1209060D01*
X1461819Y1190940D01*
X1463400Y1189360D01*
X1483100Y1189360D01*
X1484680Y1190940D01*
X1484680Y1209060D01*
X1483100Y1210640D01*
G37*
G36*
X1496900Y1210640D02*
G01*
X1495320Y1209060D01*
X1495320Y1190940D01*
X1496900Y1189360D01*
X1516600Y1189360D01*
X1518180Y1190940D01*
X1518180Y1209060D01*
X1516600Y1210640D01*
G37*
G36*
X1723400Y1210640D02*
G01*
X1721819Y1209060D01*
X1721819Y1190940D01*
X1723400Y1189360D01*
X1743100Y1189360D01*
X1744680Y1190940D01*
X1744680Y1209060D01*
X1743100Y1210640D01*
G37*
G36*
X1756900Y1210640D02*
G01*
X1755320Y1209060D01*
X1755320Y1190940D01*
X1756900Y1189360D01*
X1776600Y1189360D01*
X1778180Y1190940D01*
X1778180Y1209060D01*
X1776600Y1210640D01*
G37*
G36*
X1833400Y705639D02*
G01*
X1831819Y704060D01*
X1831819Y685939D01*
X1833400Y684360D01*
X1853100Y684360D01*
X1854680Y685939D01*
X1854680Y704060D01*
X1853100Y705639D01*
G37*
G36*
X1866900Y705639D02*
G01*
X1865320Y704060D01*
X1865320Y685939D01*
X1866900Y684360D01*
X1886600Y684360D01*
X1888180Y685939D01*
X1888180Y704060D01*
X1886600Y705639D01*
G37*
G36*
X1913400Y705639D02*
G01*
X1911819Y704060D01*
X1911819Y685939D01*
X1913400Y684360D01*
X1933100Y684360D01*
X1934680Y685939D01*
X1934680Y704060D01*
X1933100Y705639D01*
G37*
G36*
X1946900Y705639D02*
G01*
X1945320Y704060D01*
X1945320Y685939D01*
X1946900Y684360D01*
X1966600Y684360D01*
X1968180Y685939D01*
X1968180Y704060D01*
X1966600Y705639D01*
G37*
G36*
X1613400Y830639D02*
G01*
X1611819Y829060D01*
X1611819Y810939D01*
X1613400Y809360D01*
X1633100Y809360D01*
X1634680Y810939D01*
X1634680Y829060D01*
X1633100Y830639D01*
G37*
G36*
X1646900Y830639D02*
G01*
X1645320Y829060D01*
X1645320Y810939D01*
X1646900Y809360D01*
X1666600Y809360D01*
X1668180Y810939D01*
X1668180Y829060D01*
X1666600Y830639D01*
G37*
G36*
X1513400Y830639D02*
G01*
X1511819Y829060D01*
X1511819Y810939D01*
X1513400Y809360D01*
X1533100Y809360D01*
X1534680Y810939D01*
X1534680Y829060D01*
X1533100Y830639D01*
G37*
G36*
X1546900Y830639D02*
G01*
X1545320Y829060D01*
X1545320Y810939D01*
X1546900Y809360D01*
X1566600Y809360D01*
X1568180Y810939D01*
X1568180Y829060D01*
X1566600Y830639D01*
G37*
G36*
X1561860Y1073160D02*
G01*
X1561860Y966860D01*
X1668140Y966860D01*
X1668140Y1073160D01*
G37*
G36*
X1668540Y944220D02*
G01*
X1668540Y908580D01*
X1679560Y908580D01*
X1679560Y944220D01*
G37*
G36*
X1648860Y944220D02*
G01*
X1648860Y908580D01*
X1659880Y908580D01*
X1659880Y944220D01*
G37*
G36*
X1629160Y944220D02*
G01*
X1629160Y908580D01*
X1640200Y908580D01*
X1640200Y944220D01*
G37*
G36*
X1609480Y944220D02*
G01*
X1609480Y908580D01*
X1620520Y908580D01*
X1620520Y944220D01*
G37*
G36*
X1589800Y944220D02*
G01*
X1589800Y908580D01*
X1600820Y908580D01*
X1600820Y944220D01*
G37*
G36*
X1570120Y944220D02*
G01*
X1570120Y908580D01*
X1581140Y908580D01*
X1581140Y944220D01*
G37*
G36*
X1550420Y944220D02*
G01*
X1550420Y908580D01*
X1561459Y908580D01*
X1561459Y944220D01*
G37*
G36*
X1503580Y966460D02*
G01*
X1503580Y955440D01*
X1539220Y955440D01*
X1539220Y966460D01*
G37*
G36*
X1503580Y986140D02*
G01*
X1503580Y975120D01*
X1539220Y975120D01*
X1539220Y986140D01*
G37*
G36*
X1503580Y1005840D02*
G01*
X1503580Y994800D01*
X1539220Y994800D01*
X1539220Y1005840D01*
G37*
G36*
X1503580Y1025520D02*
G01*
X1503580Y1014479D01*
X1539220Y1014479D01*
X1539220Y1025520D01*
G37*
G36*
X1503580Y1045200D02*
G01*
X1503580Y1034180D01*
X1539220Y1034180D01*
X1539220Y1045200D01*
G37*
G36*
X1503580Y1064880D02*
G01*
X1503580Y1053860D01*
X1539220Y1053860D01*
X1539220Y1064880D01*
G37*
G36*
X1503580Y1084580D02*
G01*
X1503580Y1073540D01*
X1539220Y1073540D01*
X1539220Y1084580D01*
G37*
G36*
X1550420Y1131420D02*
G01*
X1550420Y1095780D01*
X1561459Y1095780D01*
X1561459Y1131420D01*
G37*
G36*
X1570120Y1131420D02*
G01*
X1570120Y1095780D01*
X1581140Y1095780D01*
X1581140Y1131420D01*
G37*
G36*
X1589800Y1131420D02*
G01*
X1589800Y1095780D01*
X1600820Y1095780D01*
X1600820Y1131420D01*
G37*
G36*
X1609480Y1131420D02*
G01*
X1609480Y1095780D01*
X1620520Y1095780D01*
X1620520Y1131420D01*
G37*
G36*
X1629160Y1131420D02*
G01*
X1629160Y1095780D01*
X1640200Y1095780D01*
X1640200Y1131420D01*
G37*
G36*
X1648860Y1131420D02*
G01*
X1648860Y1095780D01*
X1659880Y1095780D01*
X1659880Y1131420D01*
G37*
G36*
X1668540Y1131420D02*
G01*
X1668540Y1095780D01*
X1679560Y1095780D01*
X1679560Y1131420D01*
G37*
G36*
X1690780Y1084580D02*
G01*
X1690780Y1073540D01*
X1726420Y1073540D01*
X1726420Y1084580D01*
G37*
G36*
X1690780Y1064880D02*
G01*
X1690780Y1053860D01*
X1726420Y1053860D01*
X1726420Y1064880D01*
G37*
G36*
X1690780Y1045200D02*
G01*
X1690780Y1034180D01*
X1726420Y1034180D01*
X1726420Y1045200D01*
G37*
G36*
X1690780Y1025520D02*
G01*
X1690780Y1014479D01*
X1726420Y1014479D01*
X1726420Y1025520D01*
G37*
G36*
X1690780Y1005840D02*
G01*
X1690780Y994800D01*
X1726420Y994800D01*
X1726420Y1005840D01*
G37*
G36*
X1690780Y986140D02*
G01*
X1690780Y975120D01*
X1726420Y975120D01*
X1726420Y986140D01*
G37*
G36*
X1690780Y966460D02*
G01*
X1690780Y955440D01*
X1726420Y955440D01*
X1726420Y966460D01*
G37*
G36*
X1391140Y1170700D02*
G01*
X1389180Y1168740D01*
X1389180Y1149840D01*
X1391140Y1147080D01*
X1408860Y1147080D01*
X1410820Y1149840D01*
X1410820Y1168740D01*
X1408860Y1170700D01*
G37*
G36*
X1391140Y1132920D02*
G01*
X1389180Y1130160D01*
X1389180Y1111260D01*
X1391140Y1109300D01*
X1408860Y1109300D01*
X1410820Y1111260D01*
X1410820Y1130160D01*
X1408860Y1132920D01*
G37*
D10*
G01*
X1082920Y1156729D03*
D11*
G01*
X1300000Y964529D03*
G01*
X1300000Y905470D03*
G01*
X1300000Y1064529D03*
G01*
X1300000Y1005470D03*
G01*
X1300000Y1105470D03*
G01*
X1300000Y1164529D03*
D12*
G01*
X1478310Y1300000D03*
G01*
X1391689Y1300000D03*
G01*
X2116689Y685000D03*
G01*
X2203310Y685000D03*
D13*
G01*
X1557399Y718620D03*
G01*
X1482600Y718620D03*
G01*
X1520000Y621379D03*
G01*
X1697399Y718620D03*
G01*
X1622600Y718620D03*
G01*
X1660000Y621379D03*
D14*
G01*
X1305079Y135940D03*
G01*
X1064920Y135940D03*
G01*
X1305079Y254050D03*
G01*
X1064920Y254050D03*
D15*
G01*
X1975000Y1430000D03*
G01*
X2075000Y1430000D03*
D16*
G01*
X2200550Y1096610D03*
G01*
X2110000Y1096610D03*
G01*
X2019449Y1096610D03*
D17*
G01*
X2110000Y873386D03*
D18*
G01*
X3054430Y1449330D03*
G01*
X3004430Y1449330D03*
G01*
X2954430Y1449330D03*
G01*
X2904430Y1449330D03*
G01*
X2854430Y1449330D03*
G01*
X2804430Y1449330D03*
G01*
X2754430Y1449330D03*
G01*
X2704430Y1449330D03*
G01*
X2654430Y1449330D03*
G01*
X2604430Y1449330D03*
G01*
X2554430Y1449330D03*
G01*
X2504430Y1449330D03*
G01*
X2454430Y1449330D03*
G01*
X2404430Y1449330D03*
D19*
G01*
X2345569Y1319989D03*
G01*
X2345569Y1269989D03*
G01*
X2345569Y1219989D03*
G01*
X2345569Y1169989D03*
G01*
X2345569Y1119989D03*
G01*
X2345569Y1069989D03*
G01*
X2345569Y1019989D03*
G01*
X2345569Y969989D03*
G01*
X2345569Y919989D03*
G01*
X2345569Y869989D03*
D18*
G01*
X2404430Y740670D03*
G01*
X2454430Y740670D03*
G01*
X2504430Y740670D03*
G01*
X2554430Y740670D03*
G01*
X2604430Y740670D03*
G01*
X2654430Y740670D03*
G01*
X2704430Y740670D03*
G01*
X2754430Y740670D03*
G01*
X2804430Y740670D03*
G01*
X2854430Y740670D03*
G01*
X2904430Y740670D03*
G01*
X2954430Y740670D03*
G01*
X3004430Y740670D03*
G01*
X3054430Y740670D03*
D20*
G01*
X2752030Y1154059D03*
G01*
X2752030Y1209169D03*
G01*
X2752030Y1098939D03*
G01*
X2807150Y1098939D03*
G01*
X2807150Y1154050D03*
G01*
X2807150Y1209169D03*
G01*
X2696909Y1209169D03*
G01*
X2696909Y1154050D03*
G01*
X2696909Y1098939D03*
D21*
G01*
X2104960Y305000D03*
D22*
G01*
X1475039Y305000D03*
D21*
G01*
X2899960Y305000D03*
D22*
G01*
X2270039Y305000D03*
D14*
G01*
X1305069Y430990D03*
G01*
X1064920Y430990D03*
G01*
X1305069Y549099D03*
G01*
X1064920Y549099D03*
M02*
