G04 Layer: TopSolderMaskLayer*
G04 EasyEDA v6.5.22, 2023-04-13 23:23:34*
G04 8da0a1a92f474effb9e69289645bcd93,716f0268f4a04d1f8e2d1e8369cd39e0,10*
G04 Gerber Generator version 0.2*
G04 Scale: 100 percent, Rotated: No, Reflected: No *
G04 Dimensions in inches *
G04 leading zeros omitted , absolute positions ,3 integer and 6 decimal *
%FSLAX36Y36*%
%MOIN*%

%AMMACRO1*1,1,$1,$2,$3*1,1,$1,$4,$5*1,1,$1,0-$2,0-$3*1,1,$1,0-$4,0-$5*20,1,$1,$2,$3,$4,$5,0*20,1,$1,$4,$5,0-$2,0-$3,0*20,1,$1,0-$2,0-$3,0-$4,0-$5,0*20,1,$1,0-$4,0-$5,$2,$3,0*4,1,4,$2,$3,$4,$5,0-$2,0-$3,0-$4,0-$5,$2,$3,0*%
%ADD10MACRO1,0.004X-0.0197X-0.0197X-0.0197X0.0197*%
%ADD11C,0.0434*%
%ADD12MACRO1,0.004X0.0106X-0.0111X-0.0106X-0.0111*%
%ADD13MACRO1,0.004X0.0106X0.0111X-0.0106X0.0111*%
%ADD14MACRO1,0.004X0.0315X0.0079X0.0315X-0.0079*%
%ADD15O,0.078803X0.051244000000000005*%
%ADD16O,0.059118000000000004X0.051244000000000005*%
%ADD17MACRO1,0.004X-0.0106X0.0156X0.0106X0.0156*%
%ADD18MACRO1,0.004X-0.0106X-0.0156X0.0106X-0.0156*%
%ADD19MACRO1,0.004X-0.0156X-0.0106X-0.0156X0.0106*%
%ADD20MACRO1,0.004X0.0156X-0.0106X0.0156X0.0106*%
%ADD21MACRO1,0.004X0.0106X-0.0156X-0.0106X-0.0156*%
%ADD22MACRO1,0.004X0.0106X0.0156X-0.0106X0.0156*%
%ADD23MACRO1,0.004X0.0156X0.0106X0.0156X-0.0106*%
%ADD24MACRO1,0.004X-0.0156X0.0106X-0.0156X-0.0106*%
%ADD25MACRO1,0.004X-0.0278X-0.0266X-0.0278X0.0266*%
%ADD26MACRO1,0.004X0.0278X-0.0266X0.0278X0.0266*%
%ADD27MACRO1,0.004X0.0118X0.0118X0.0118X-0.0118*%
%ADD28MACRO1,0.004X-0.0118X-0.0118X-0.0118X0.0118*%
%ADD29MACRO1,0.004X0.0197X-0.0197X-0.0197X-0.0197*%
%ADD30MACRO1,0.004X0.0197X-0.0246X-0.0197X-0.0246*%
%ADD31MACRO1,0.004X-0.0197X0.0246X0.0197X0.0246*%
%ADD32MACRO1,0.004X-0.0118X-0.0211X-0.0118X0.0211*%
%ADD33MACRO1,0.004X-0.0106X0.0111X0.0106X0.0111*%
%ADD34MACRO1,0.004X-0.0106X-0.0111X0.0106X-0.0111*%
%ADD35MACRO1,0.004X0.0111X0.0106X0.0111X-0.0106*%
%ADD36MACRO1,0.004X-0.0111X0.0106X-0.0111X-0.0106*%
%ADD37MACRO1,0.004X-0.0111X-0.0106X-0.0111X0.0106*%
%ADD38MACRO1,0.004X0.0111X-0.0106X0.0111X0.0106*%
%ADD39MACRO1,0.004X0.0295X-0.0197X-0.0295X-0.0197*%
%ADD40MACRO1,0.0039X0.0236X-0.0512X-0.0236X-0.0512*%
%ADD41MACRO1,0.004X0.0178X-0.0055X-0.0178X-0.0055*%
%ADD42MACRO1,0.004X0.0055X-0.0178X-0.0055X-0.0178*%
%ADD43MACRO1,0.004X0.0659X-0.0659X-0.0659X-0.0659*%
%ADD44MACRO1,0.004X0.0193X0.0486X-0.0193X0.0486*%
%ADD45MACRO1,0.004X-0.0709X0.0486X0.0709X0.0486*%
%ADD46MACRO1,0.004X0.0187X-0.0413X-0.0187X-0.0413*%
%ADD47MACRO1,0.004X0.0413X-0.0187X-0.0413X-0.0187*%
%ADD48MACRO1,0.004X-0.0177X0.0177X0.0177X0.0177*%
%ADD49MACRO1,0.0039X0.0787X-0.0453X-0.0787X-0.0453*%
%ADD50MACRO1,0.0039X0.0866X-0.0453X-0.0866X-0.0453*%
%ADD51C,0.0591*%
%ADD52MACRO1,0.004X0.03X-0.0276X-0.03X-0.0276*%

%LPD*%
D10*
G01*
X2995000Y575000D03*
D11*
G01*
X2995000Y625000D03*
D12*
G01*
X2905000Y607040D03*
D13*
G01*
X2905000Y572959D03*
D14*
G01*
X1187244Y1066180D03*
G01*
X1187244Y1040590D03*
G01*
X1187244Y1015000D03*
G01*
X1187244Y989409D03*
G01*
X1187550Y963819D03*
D15*
G01*
X1082920Y1156729D03*
D16*
G01*
X1197079Y919529D03*
G01*
X1197079Y1110470D03*
D15*
G01*
X1082920Y873270D03*
D17*
G01*
X1385000Y518541D03*
D18*
G01*
X1385000Y561458D03*
D19*
G01*
X1921459Y825000D03*
D20*
G01*
X1878540Y825000D03*
D21*
G01*
X1820000Y1026458D03*
D22*
G01*
X1820000Y983541D03*
D23*
G01*
X1798540Y1125000D03*
D24*
G01*
X1841459Y1125000D03*
D19*
G01*
X2191459Y1205000D03*
D20*
G01*
X2148540Y1205000D03*
D19*
G01*
X1951459Y1220000D03*
D20*
G01*
X1908540Y1220000D03*
D23*
G01*
X2023540Y1205000D03*
D24*
G01*
X2066459Y1205000D03*
D19*
G01*
X1301459Y1355000D03*
D20*
G01*
X1258540Y1355000D03*
D25*
G01*
X2124371Y1290000D03*
D26*
G01*
X2045628Y1290000D03*
D27*
G01*
X1300000Y964529D03*
D28*
G01*
X1300000Y905471D03*
D27*
G01*
X1300000Y1064529D03*
D28*
G01*
X1300000Y1005471D03*
G01*
X1300000Y1105471D03*
D27*
G01*
X1300000Y1164529D03*
D29*
G01*
X1310000Y1445000D03*
D11*
G01*
X1260000Y1445000D03*
D30*
G01*
X1478307Y1300003D03*
G01*
X1391688Y1300003D03*
D31*
G01*
X2116692Y684996D03*
G01*
X2203311Y684996D03*
D32*
G01*
X1557399Y718622D03*
G01*
X1482600Y718622D03*
G01*
X1520000Y621377D03*
G01*
X1697399Y718622D03*
G01*
X1622600Y718622D03*
G01*
X1660000Y621377D03*
D33*
G01*
X2145000Y1412959D03*
D34*
G01*
X2145000Y1447040D03*
D35*
G01*
X1882959Y875000D03*
D36*
G01*
X1917040Y875000D03*
D37*
G01*
X1592040Y1305000D03*
D38*
G01*
X1557959Y1305000D03*
D37*
G01*
X2177040Y765000D03*
D38*
G01*
X2142959Y765000D03*
D35*
G01*
X1552959Y1200000D03*
D36*
G01*
X1587040Y1200000D03*
D35*
G01*
X1652959Y1200000D03*
D36*
G01*
X1687040Y1200000D03*
D35*
G01*
X1472959Y1200000D03*
D36*
G01*
X1507040Y1200000D03*
D35*
G01*
X1732959Y1200000D03*
D36*
G01*
X1767040Y1200000D03*
D35*
G01*
X1842959Y695000D03*
D36*
G01*
X1877040Y695000D03*
D35*
G01*
X1922959Y695000D03*
D36*
G01*
X1957040Y695000D03*
D35*
G01*
X1622959Y820000D03*
D36*
G01*
X1657040Y820000D03*
D35*
G01*
X1522959Y820000D03*
D36*
G01*
X1557040Y820000D03*
D39*
G01*
X1305079Y135945D03*
G01*
X1064922Y135945D03*
G01*
X1305079Y254054D03*
G01*
X1064921Y254054D03*
D40*
G01*
X1975000Y1430000D03*
G01*
X2075000Y1430000D03*
D41*
G01*
X1708599Y960950D03*
G01*
X1708599Y980630D03*
G01*
X1708599Y1000319D03*
G01*
X1708599Y1020000D03*
G01*
X1708599Y1039690D03*
G01*
X1708599Y1059369D03*
G01*
X1708599Y1079059D03*
D42*
G01*
X1674049Y1113600D03*
G01*
X1654369Y1113600D03*
G01*
X1634679Y1113600D03*
G01*
X1615000Y1113600D03*
G01*
X1595309Y1113600D03*
G01*
X1575630Y1113600D03*
G01*
X1555940Y1113600D03*
D41*
G01*
X1521400Y1079059D03*
G01*
X1521400Y1059369D03*
G01*
X1521400Y1039690D03*
G01*
X1521400Y1020000D03*
G01*
X1521400Y1000319D03*
G01*
X1521400Y980630D03*
G01*
X1521400Y960950D03*
D42*
G01*
X1555940Y926399D03*
G01*
X1575630Y926399D03*
G01*
X1595309Y926399D03*
G01*
X1615000Y926399D03*
G01*
X1634679Y926399D03*
G01*
X1654369Y926399D03*
G01*
X1674049Y926399D03*
D43*
G01*
X1615000Y1020000D03*
D44*
G01*
X2200551Y1096613D03*
G01*
X2110000Y1096613D03*
G01*
X2019448Y1096613D03*
D45*
G01*
X2110000Y873386D03*
D46*
G01*
X3054431Y1449332D03*
G01*
X3004431Y1449332D03*
G01*
X2954431Y1449332D03*
G01*
X2904431Y1449332D03*
G01*
X2854431Y1449332D03*
G01*
X2804431Y1449332D03*
G01*
X2754431Y1449332D03*
G01*
X2704431Y1449332D03*
G01*
X2654431Y1449332D03*
G01*
X2604431Y1449332D03*
G01*
X2554431Y1449332D03*
G01*
X2504431Y1449332D03*
G01*
X2454431Y1449332D03*
G01*
X2404431Y1449332D03*
D47*
G01*
X2345574Y1319994D03*
G01*
X2345574Y1269994D03*
G01*
X2345574Y1219994D03*
G01*
X2345574Y1169994D03*
G01*
X2345574Y1119994D03*
G01*
X2345574Y1069994D03*
G01*
X2345574Y1019994D03*
G01*
X2345574Y969994D03*
G01*
X2345574Y919994D03*
G01*
X2345574Y869994D03*
D46*
G01*
X2404431Y740667D03*
G01*
X2454431Y740667D03*
G01*
X2504431Y740667D03*
G01*
X2554431Y740667D03*
G01*
X2604431Y740667D03*
G01*
X2654431Y740667D03*
G01*
X2704431Y740667D03*
G01*
X2754431Y740667D03*
G01*
X2804431Y740667D03*
G01*
X2854431Y740667D03*
G01*
X2904431Y740667D03*
G01*
X2954431Y740667D03*
G01*
X3004431Y740667D03*
G01*
X3054431Y740667D03*
D48*
G01*
X2752029Y1154064D03*
G01*
X2752028Y1209173D03*
G01*
X2752028Y1098936D03*
G01*
X2807147Y1098936D03*
G01*
X2807147Y1154055D03*
G01*
X2807147Y1209173D03*
G01*
X2696914Y1209173D03*
G01*
X2696911Y1154055D03*
G01*
X2696914Y1098936D03*
D49*
G01*
X2104960Y305000D03*
D50*
G01*
X1475039Y305000D03*
D49*
G01*
X2899960Y305000D03*
D50*
G01*
X2270039Y305000D03*
D51*
G01*
X1521890Y1450000D03*
G01*
X1600630Y1450000D03*
G01*
X1679369Y1450000D03*
D52*
G01*
X1758109Y1450000D03*
D39*
G01*
X1305074Y430990D03*
G01*
X1064917Y430990D03*
G01*
X1305074Y549099D03*
G01*
X1064916Y549099D03*
D17*
G01*
X1400000Y1118541D03*
D18*
G01*
X1400000Y1161458D03*
M02*
